<?xml version="1.0" encoding="UTF-8"?>
<svg width="16px" height="16px" viewBox="0 0 16 16" version="1.1" xmlns="http://www.w3.org/2000/svg" xmlns:xlink="http://www.w3.org/1999/xlink">
    <!-- Generator: Sketch 63.1 (92452) - https://sketch.com -->
    <title>icon-regular</title>
    <desc>Created with Sketch.</desc>
    <g id="服务发布" stroke="none" stroke-width="1" fill="none" fill-rule="evenodd">
        <g id="yzfb" transform="translate(-478.000000, -290.000000)" fill-rule="nonzero">
            <g id="编组" transform="translate(471.000000, 286.000000)">
                <g id="icon-regular" transform="translate(15.000000, 12.000000) scale(-1, 1) translate(-15.000000, -12.000000) translate(7.000000, 4.000000)">
                    <rect id="矩形" fill="#000000" opacity="0" x="0" y="0" width="16" height="16"></rect>
                    <path d="M8,1.33333333 C11.682,1.33333333 14.6666667,4.318 14.6666667,8 C14.6666667,11.62 11.782,14.5653333 8.18666667,14.664 L8,14.6666667 L0.666666672,14.6666667 L2.96466667,12.3693333 C1.91049989,11.1580284 1.33095183,9.60577753 1.33333333,8 C1.33333333,4.318 4.318,1.33333333 8,1.33333333 Z M8,2.66666513 C5.05448134,2.66666513 2.66666667,5.05448134 2.66666667,8 C2.66666667,9.23133333 3.084,10.3946667 3.83533333,11.332 L3.97133333,11.4946667 L4.786,12.4333333 L3.88533333,13.3333333 L7.982,13.3333333 L8.15,13.3313333 C11.0667362,13.2514629 13.3778508,10.8425329 13.3368152,7.92499185 C13.2957796,5.00745081 10.9178288,2.66447317 8,2.66666513 Z M5.7,9.33333333 C6.16666667,10.1266667 7.01333333,10.6666667 8,10.6666667 C8.89837163,10.6658455 9.73531309,10.2104951 10.224,9.45666667 L10.3,9.33333333 L11.4133333,9.33333333 C10.8751177,10.714395 9.55770703,11.635032 8.07579341,11.6656832 C6.59387979,11.6963345 5.23952805,10.830959 4.64466667,9.47333333 L4.58666667,9.33333333 L5.7,9.33333333 Z" id="形状" fill="#666666"></path>
                </g>
            </g>
        </g>
    </g>
</svg>