<?xml version="1.0" encoding="UTF-8"?>
<svg width="72px" height="72px" viewBox="0 0 72 72" version="1.1" xmlns="http://www.w3.org/2000/svg" xmlns:xlink="http://www.w3.org/1999/xlink">
    <!-- Generator: Sketch 52.4 (67378) - http://www.bohemiancoding.com/sketch -->
    <title>mianicon-sjj</title>
    <desc>Created with Sketch.</desc>
    <g id="mianicon-sjj" stroke="none" stroke-width="1" fill="none" fill-rule="evenodd">
        <circle id="椭圆形" fill="#DCFDFD" cx="41" cy="39" r="25"></circle>
        <path d="M56,35 C56,47.7025492 45.7025492,58 33,58 C20.2974508,58 10,47.7025492 10,35 C10,22.2974508 20.2974508,12 33,12 C45.7025492,12 56,22.2974508 56,35 Z M33,8 C18.0883118,8 6,20.0883118 6,35 C6,49.9116882 18.0883118,62 33,62 C47.9116882,62 60,49.9116882 60,35 C60,27.8391548 57.1553653,20.9715991 52.0918831,15.9081169 C47.0284009,10.8446347 40.1608452,8 33,8 Z" id="形状" fill="#36D3B2" fill-rule="nonzero"></path>
        <path d="M34.2237102,25.0174005 L34.2222647,25.0166701 C34.0965017,24.9527081 33.8072658,24.9003159 33.5010086,24.9003159 C33.1946161,24.9003159 32.9054659,24.9527329 32.7777215,25.017696 L24.8385619,29.0000003 L32.7797526,32.9833299 C32.9055155,33.0472919 33.1947515,33.0996841 33.5010086,33.0996841 C33.8074034,33.0996841 34.0965522,33.0472667 34.2243297,32.982287 L42.161616,29.0018453 L34.2237102,25.0174005 Z M33.5010086,22 C34.241818,22 34.9485583,22.1454781 35.4876262,22.4159387 L46.0177924,27.7001367 C47.3273963,28.3571898 47.3273994,29.6428087 46.0178205,30.2998492 L35.4875981,35.5840754 C34.9485573,35.8545224 34.2418165,36 33.5010086,36 C32.7606736,36 32.0539171,35.8546662 31.5123703,35.5840613 L20.9822041,30.2998633 C19.6725986,29.6428095 19.6725986,28.3571906 20.9822041,27.7001367 L31.5144192,22.4159246 C32.0534599,22.1454776 32.7602006,22 33.5010086,22 Z" id="形状" fill="#36D3B2" fill-rule="nonzero"></path>
        <path d="M31.0675143,41.4986975 L20.7895256,36.5919508 C20.084467,36.2548453 19.7972323,35.4305346 20.1523937,34.752805 C20.5052182,34.0795349 21.3574989,33.8085676 22.0579464,34.1434685 L32.3333655,39.051872 C32.9262936,39.3350488 34.0751567,39.3350499 34.668058,39.0518858 L44.9437,34.1433759 C45.6443658,33.8091185 46.4961325,34.0807198 46.8482232,34.7540928 C47.2026369,35.4319087 46.9147339,36.2557119 46.2097192,36.5920439 L35.9240531,41.5032511 C35.1639041,41.8415915 34.3336843,42.0111765 33.4999293,41.9994288 C32.6102977,41.9993242 31.7516786,41.8244236 31.0675143,41.4986975 Z" id="路径" fill="#36D3B2" fill-rule="nonzero"></path>
        <path d="M33.5004097,49 C32.6104712,49 31.7515183,48.8250675 31.0667387,48.4990109 L20.7922668,43.5904973 C20.0847441,43.255278 19.7964823,42.4313658 20.1529878,41.7529802 C20.5058084,41.0816063 21.3526182,40.8118385 22.0573636,41.1430374 L32.3330296,46.0521191 C32.9259674,46.3353329 34.0748498,46.3353339 34.6677609,46.0521329 L44.9436497,41.1429448 C45.6443387,40.8086381 46.4961335,41.0802793 46.8482269,41.7537344 C47.2026332,42.4316133 46.9147359,43.2554938 46.2097176,43.5918659 L35.9345143,48.4988034 C35.2527736,48.8254543 34.3950709,49 33.5004097,49 Z" id="路径" fill="#36D3B2" fill-rule="nonzero"></path>
    </g>
</svg>