<?xml version="1.0" encoding="UTF-8"?>
<svg width="72px" height="72px" viewBox="0 0 72 72" version="1.1" xmlns="http://www.w3.org/2000/svg" xmlns:xlink="http://www.w3.org/1999/xlink">
    <!-- Generator: Sketch 52.4 (67378) - http://www.bohemiancoding.com/sketch -->
    <title>icon-fuwu</title>
    <desc>Created with Sketch.</desc>
    <g id="icon-fuwu" stroke="none" stroke-width="1" fill="none" fill-rule="evenodd">
        <polygon id="路径-copy" fill="#DEE8FF" points="19 27.75 19 53.25 41.5 66 64 53.25 64 27.75 41.5 15"></polygon>
        <path d="M10,21 L34.5,7 L59,21 L59,49 L34.5,63 L10,49 L10,21 Z M14,23.5 L14,46.5 L34.5,58 L55,46.5 L55,23.5 L34.5,12 L14,23.5 Z" id="合并形状" fill="#5C8DFF"></path>
        <g id="数据-7" transform="translate(19.000000, 19.000000)" fill="#5C8DFF">
            <path d="M25.717619,18.6933061 C24.9743159,18.6933061 24.2845841,18.8944838 23.6752095,19.2189641 L19.031239,15.9060209 C19.1852567,15.477707 19.2890513,15.0201899 19.2890513,14.5367143 C19.2890513,14.3906982 19.2589174,14.2544165 19.2455245,14.1116452 L23.5345846,11.6196371 C24.1272181,12.1582742 22.5301208,9.63057325 22.5502101,9.77009975 L18.4854803,12.1323158 C17.8995432,11.3405841 17.0490972,10.7727437 16.0747675,10.5326283 L16.0747675,8.1606778 C17.9162842,7.69667107 19.2890513,6.08400433 19.2890513,4.15334695 C19.2890513,1.86251652 17.3671774,0 15.0033395,0 C12.6395016,0 10.7176277,1.86251652 10.7176277,4.15334695 C10.7176277,6.08400433 12.0903948,7.69667107 13.9319116,8.1606778 L13.9319116,10.5326283 C12.8872693,10.7954573 11.983252,11.4281937 11.3973148,12.31078 L7.42633497,10.0004807 C7.07477268,10.4515082 6.6729872,11.1069583 6.29129099,11.7624084 L10.7343688,14.3485158 C10.7310206,14.4134118 10.7142795,14.4718183 10.7142795,14.5399591 C10.7142795,15.0234347 10.8147259,15.477707 10.9720918,15.9092657 L6.38169272,19.2449225 C5.74553238,18.8879942 5.02231851,18.6965509 4.2857118,18.6900613 C1.92187388,18.6900613 0,20.5525778 0,22.8434082 C0,25.1342387 1.92187388,26.9967552 4.2857118,26.9967552 C6.64954971,26.9967552 8.5714236,25.1342387 8.5714236,22.8434082 C8.5714236,22.0581661 8.33370052,21.3313304 7.94195968,20.7050835 L12.1707519,17.6322557 C12.6729837,18.0670592 13.2756619,18.3785603 13.9285633,18.5440452 L13.9285633,23.0380964 C14.6551254,23.0543204 15.2578036,23.0413412 16.0714192,23.0380964 L16.0714192,18.5440452 C16.7243206,18.3785603 17.3269989,18.0670592 17.8325789,17.6322557 L22.0848086,20.6661459 C21.6593387,21.3189375 21.4319279,22.074551 21.428559,22.846653 C21.428559,25.1374835 23.3504329,27 25.7142708,27 C28.0781087,27 29.9999826,25.1374835 29.9999826,22.846653 C30.006679,20.5558226 28.0814569,18.6933061 25.717619,18.6933061 Z M12.8604836,4.15334695 C12.8604836,3.00793174 13.8214205,2.07667348 15.0033395,2.07667348 C16.1852585,2.07667348 17.1461954,3.00793174 17.1461954,4.15334695 C17.1461954,5.29876217 16.1852585,6.23002043 15.0033395,6.23002043 C13.8214205,6.23002043 12.8604836,5.29876217 12.8604836,4.15334695 Z M4.2857118,24.9233265 C3.10379284,24.9233265 2.1428559,23.9920683 2.1428559,22.846653 C2.1428559,21.7012378 3.10379284,20.7699796 4.2857118,20.7699796 C5.46763075,20.7699796 6.4285677,21.7012378 6.4285677,22.846653 C6.4285677,23.9920683 5.46763075,24.9233265 4.2857118,24.9233265 Z M15.0033395,16.6166326 C13.8214205,16.6166326 12.8604836,15.6853744 12.8604836,14.5399591 C12.8604836,13.3945439 13.8214205,12.4632857 15.0033395,12.4632857 C16.1852585,12.4632857 17.1461954,13.3945439 17.1461954,14.5399591 C17.1461954,15.6821296 16.1852585,16.6166326 15.0033395,16.6166326 Z M25.717619,24.9233265 C24.5357,24.9233265 23.5747631,23.9920683 23.5747631,22.846653 C23.5747631,21.7012378 24.5357,20.7699796 25.717619,20.7699796 C26.899538,20.7699796 27.8604749,21.7012378 27.8604749,22.846653 C27.8604749,23.9920683 26.899538,24.9233265 25.717619,24.9233265 Z" id="形状" fill-rule="nonzero"></path>
            <path d="M12,26.4999999 C12,27.7504295 12.6670962,28.9058741 13.75,29.5310889 C14.8329038,30.1563037 16.1670962,30.1563037 17.25,29.5310889 C18.3329038,28.9058741 19,27.7504295 19,26.4999999 C19,24.5670034 17.4329966,23 15.5,23 C13.5670034,23 12,24.5670034 12,26.4999999 Z" id="路径"></path>
            <path d="M22,9.5 C22,11.4329966 23.5670034,13 25.5,13 C27.4329966,13 29,11.4329966 29,9.5 C29,7.56700338 27.4329966,6 25.5,6 C23.5670034,6 22,7.56700338 22,9.5 Z" id="路径"></path>
            <path d="M1,9.5 C1,11.4329966 2.56700338,13 4.5,13 C6.43299662,13 8,11.4329966 8,9.5 C8,7.56700338 6.43299662,6 4.5,6 C2.56700338,6 1,7.56700338 1,9.5 Z" id="路径"></path>
        </g>
    </g>
</svg>