<?xml version="1.0" encoding="UTF-8"?>
<svg width="72px" height="72px" viewBox="0 0 72 72" version="1.1" xmlns="http://www.w3.org/2000/svg" xmlns:xlink="http://www.w3.org/1999/xlink">
    <!-- Generator: Sketch 52.4 (67378) - http://www.bohemiancoding.com/sketch -->
    <title>mianicon-yysm</title>
    <desc>Created with Sketch.</desc>
    <defs>
        <linearGradient x1="100%" y1="50%" x2="0%" y2="50%" id="linearGradient-1">
            <stop stop-color="#7ABFFD" stop-opacity="0" offset="0%"></stop>
            <stop stop-color="#448BFB" stop-opacity="0.75744452" offset="100%"></stop>
        </linearGradient>
    </defs>
    <g id="mianicon-yysm" stroke="none" stroke-width="1" fill="none" fill-rule="evenodd">
        <circle id="椭圆形" fill="url(#linearGradient-1)" opacity="0.602632068" cx="35.5" cy="36.5" r="22.5"></circle>
        <g id="说明-1" transform="translate(6.000000, 6.000000)" fill-rule="nonzero">
            <path d="M30,3.00000002 C44.9116882,3.00000002 57,15.0883118 57,30 C57,44.9116882 44.9116882,57 30,57 C15.0883118,57 3.00000002,44.9116882 3.00000002,30 C3.00000002,15.0883118 15.0883118,3.00000002 30,3.00000002 Z M30,0 C13.4314575,-1.01453063e-15 2.02906125e-15,13.4314575 0,30 C-2.02906125e-15,46.5685425 13.4314575,60 30,60 C46.5685425,60 60,46.5685425 60,30 C60,22.0435053 56.8392948,14.4128879 51.2132034,8.78679656 C45.5871121,3.16070521 37.9564947,4.87194788e-16 30,0 Z" id="形状" fill="#516378"></path>
            <path d="M30.814165,15.0212304 C29.3893527,14.9973276 27.9747152,15.2587118 26.6582048,15.7891321 C25.4758889,16.2715852 24.4184038,17.0031865 23.5620144,17.9311735 C22.706529,18.8755999 22.049948,19.9741148 21.6294929,21.1644437 C21.1716486,22.4637908 20.9604191,23.8332342 21.0060988,25.2060313 L24.7049035,25.2060313 C24.7106293,24.270325 24.8433821,23.3394503 25.0997197,22.4375438 C25.3089048,21.6381011 25.6836615,20.8885855 26.2010491,20.2348785 C26.712333,19.6140836 27.3579481,19.1104255 28.092011,18.759699 C28.9364807,18.3757017 29.8615193,18.1888656 30.7933852,18.2140847 C32.164657,18.1462309 33.5059752,18.6198975 34.5129696,19.5276007 C35.4709879,20.5130934 36.018919,21.8092197 36.0506749,23.1650296 C36.1265318,24.0717242 35.9915927,24.9833966 35.6558586,25.8324775 C35.3365992,26.5668872 34.9019684,27.2486125 34.367511,27.8532713 C33.8222643,28.4662822 33.2393641,29.0466375 32.6220077,29.591154 C31.9864657,30.1519543 31.3894927,30.75275 30.8349448,31.3896605 C30.2546285,32.0632969 29.7721864,32.8112415 29.4011385,33.6125338 C28.9834674,34.5726696 28.75779,35.6014199 28.7361849,36.6437245 L28.7361849,38.6645183 L32.4349895,38.6645183 L32.4349895,36.9872595 C32.419514,36.2996696 32.5321556,35.615034 32.7674663,34.9664656 C32.9815059,34.3915297 33.2751253,33.847646 33.6402179,33.3498306 C34.0089729,32.8532125 34.4190188,32.3868645 34.8662262,31.9554828 L36.2376931,30.6621747 C36.7087019,30.2041281 37.1658576,29.7393455 37.60916,29.267827 C38.064934,28.7836116 38.4687642,28.2554753 38.8143884,27.6916078 C39.1755618,27.1010107 39.4616466,26.4699451 39.6663603,25.8122695 C39.8948311,25.0509874 40.0068568,24.2611525 39.9988371,23.4681487 C40.0186334,22.2367176 39.7855022,21.0138283 39.3131037,19.8711356 C38.8899739,18.8645772 38.2444081,17.9608216 37.4221418,17.2238957 C36.5851135,16.4864397 35.6023163,15.9226156 34.5337494,15.5668447 C33.3355986,15.175491 32.0779744,14.9841816 30.814165,15.0010225 L30.814165,15.0212304 Z M32.8921451,41.2915504 L28.1543504,41.2915504 L28.1543504,46 L32.9960441,46 L32.9960441,41.3117583 L32.8921451,41.2915504 Z" id="形状" fill="#448BFB"></path>
        </g>
    </g>
</svg>