<?xml version="1.0" encoding="UTF-8"?>
<svg width="72px" height="72px" viewBox="0 0 72 72" version="1.1" xmlns="http://www.w3.org/2000/svg" xmlns:xlink="http://www.w3.org/1999/xlink">
    <!-- Generator: Sketch 52.4 (67378) - http://www.bohemiancoding.com/sketch -->
    <title>mianicon-fzyy</title>
    <desc>Created with Sketch.</desc>
    <defs>
        <linearGradient x1="100%" y1="50%" x2="0%" y2="50%" id="linearGradient-1">
            <stop stop-color="#7ABFFD" stop-opacity="0" offset="0%"></stop>
            <stop stop-color="#448BFB" stop-opacity="0.75744452" offset="100%"></stop>
        </linearGradient>
    </defs>
    <g id="mianicon-fzyy" stroke="none" stroke-width="1" fill="none" fill-rule="evenodd">
        <g transform="translate(7.000000, 5.000000)">
            <path d="M52.3376623,30.7967644 C51.4608971,30.3126845 50.5411924,29.8982405 49.5858062,29.560777 L49.5858065,22.5979751 L2.75790066,22.5979751 L2.75790066,52.5642874 C2.75790066,55.8520538 3.22570811,56.5159244 6.26765844,56.5159244 L27.3741414,56.5159244 C27.9686593,57.5729582 28.6618559,58.5657548 29.4410481,59.4814815 L6.26564392,59.4814815 C1.70070382,59.4814815 3.19744231e-13,57.4938847 3.19744231e-13,52.5622351 L3.19744231e-13,11.3829742 C3.19744231e-13,6.45337694 1.70070382,4.45962324 6.26362935,4.45962324 L15.1533447,4.45962324 L15.1533447,-9.59232693e-14 L17.9072163,-9.59232693e-14 L17.9072163,4.45962324 L34.4364896,4.45962324 L34.4364896,0.00205232872 L37.1903612,0.00205232872 L37.1903612,4.45962324 L46.078062,4.45962324 L44.078062,4.46167551 L46.074033,4.46167551 C50.6409876,4.46167551 52.3376623,6.45337694 52.3376623,11.3870788 L52.3376623,30.7967644 Z" id="合并形状" fill="#516378" fill-rule="nonzero"></path>
            <path d="M15.5500053,44.778095 L10.1527941,39.8859025 C9.82434367,39.5489058 9.66233766,39.0400631 9.66233766,38.5334521 C9.66233766,38.0290729 9.82434361,37.522462 10.1527941,37.1832335 C10.5068081,36.8461798 10.9792522,36.6640021 11.4665959,36.6766225 C11.9592716,36.6766225 12.449728,36.8507003 12.782617,37.1832335 L16.8638071,40.7229756 L24.2585634,33.0998651 C24.6123127,32.7623892 25.0849375,32.5801418 25.5723651,32.5932542 C26.0606023,32.5932542 26.5554973,32.7606367 26.886167,33.0998651 C27.2146174,33.4368618 27.3766234,33.9457045 27.3766234,34.4523155 C27.3766234,34.9566947 27.2146174,35.4655374 26.886167,35.8025342 L18.1820475,44.778095 C17.826698,45.1144439 17.3538817,45.2964576 16.8660264,45.284706 C16.3784603,45.2947796 15.9062536,45.1130005 15.5500053,44.778095 Z" id="Shape" fill="#448BFB"></path>
            <path d="M43.4805195,60.2962963 C50.5956685,60.2962963 56.3636364,54.459416 56.3636364,47.2592593 C56.3636364,40.0591025 50.5956685,34.2222222 43.4805195,34.2222222 C36.3653705,34.2222222 30.5974026,40.0591025 30.5974026,47.2592593 C30.5974026,54.459416 36.3653705,60.2962963 43.4805195,60.2962963 Z M43.4805195,62.7262963 C35.0168159,62.7262963 28.1674026,55.7950501 28.1674026,47.2592593 C28.1674026,38.7234684 35.0168159,31.7922222 43.4805195,31.7922222 C51.9442231,31.7922222 58.7936364,38.7234684 58.7936364,47.2592593 C58.7936364,55.7950501 51.9442231,62.7262963 43.4805195,62.7262963 Z" id="Oval-2" fill="#516378" fill-rule="nonzero"></path>
            <path d="M49.5878198,19.6159997 L2.75790066,19.6159997 L2.75790066,11.3850265 C2.75790066,8.09931235 3.22570805,7.43338941 6.26765844,7.43338947 L15.1553593,7.43338947 L15.1553593,11.8950649 L17.9112454,11.8950649 L17.9112454,7.43544174 L34.4385041,7.43544174 L34.4385041,11.8950649 L37.1923758,11.8950649 L37.1923758,7.43544174 L46.0820911,7.43544174 C49.1240415,7.43544174 49.5898343,8.09726008 49.5898343,11.3870788 L49.5898343,19.618052 L49.5858053,16.3567404 L49.5878198,19.6159997 Z" id="Path" fill="#FFFFFF" fill-rule="nonzero"></path>
            <path d="M46.5880779,18.6163366 L5.75790066,18.6163366 L5.75790066,11.7364017 C5.75790066,8.99000725 6.16577364,8.43338942 8.81799632,8.43338947 L16.5670253,8.43338947 L16.5670253,12.162722 L18.9698336,12.162722 L18.9698336,8.43510488 L33.3796578,8.43510488 L33.3796578,12.162722 L35.7807097,12.162722 L35.7807097,8.43510488 L43.5314951,8.43510488 C46.1837178,8.43510488 46.5898343,8.98829184 46.5898343,11.7381172 L46.5898343,18.618052 L46.5863215,15.8920547 L46.5880779,18.6163366 Z" id="Path-Copy" fill="url(#linearGradient-1)" opacity="0.602632068"></path>
        </g>
        <path d="M50.8190476,51.508773 L55.8404762,51.508773 C56.6189298,51.508773 57.25,52.09444 57.25,52.8168865 C57.25,53.5393331 56.6189298,54.125 55.8404762,54.125 L49.4095238,54.125 C48.6310702,54.125 48,53.5393331 48,52.8168865 L48,45.3081135 C48,44.5856669 48.6310702,44 49.4095238,44 C50.1879774,44 50.8190476,44.5856669 50.8190476,45.3081135 L50.8190476,51.508773 Z" id="路径" fill="#448BFB"></path>
    </g>
</svg>