<?xml version="1.0" encoding="UTF-8"?>
<svg width="128px" height="128px" viewBox="0 0 128 128" version="1.1" xmlns="http://www.w3.org/2000/svg" xmlns:xlink="http://www.w3.org/1999/xlink">
    <!-- Generator: Sketch 52.4 (67378) - http://www.bohemiancoding.com/sketch -->
    <title>totop</title>
    <desc>Created with Sketch.</desc>
    <g id="totop" stroke="none" stroke-width="1" fill="none" fill-rule="evenodd">
        <g id="分组" transform="translate(11.000000, 8.000000)" fill="#FFFFFF">
            <path d="M101.566913,8.51165719 L4.44718716,8.51165719 C2.05254792,8.51165719 0.079821308,6.60787951 0.079821308,4.27243131 C0.091224352,1.94805158 2.05254792,0.0442738996 4.44718716,0.0442738996 L101.566913,0.0442738996 C103.961552,0.0442738996 105.934279,1.94805158 105.934279,4.28349978 C105.911473,6.60787951 103.950149,8.51165719 101.566913,8.51165719 Z M59.8431749,28.7226924 L59.8431749,106.401249 C59.8431749,109.30119 57.3915204,111.680912 54.4039229,111.680912 C51.4163254,111.680912 48.9646709,109.30119 48.9646709,106.401249 L48.9646709,28.7226924 C48.9646709,25.8227519 51.4163254,23.4430298 54.4039229,23.4430298 C57.3915204,23.4319614 59.8431749,25.800615 59.8431749,28.7226924 Z" id="形状" fill-rule="nonzero"></path>
            <path d="M94.9303413,66.0566582 L51.4391315,25.7895465 C49.7058688,24.1735492 49.6374505,21.4949782 51.3022949,19.8125701 C52.9671394,18.1301619 55.726676,18.063751 57.4599387,19.6797484 L100.951149,59.94686 C102.684411,61.5628574 102.752829,64.2414283 101.087985,65.9238365 C99.4345437,67.5951762 96.663604,67.6726555 94.9303413,66.0566582 Z" id="路径"></path>
            <path d="M13.9459228,66.0566582 L57.4371326,25.7895465 C59.1703953,24.1735492 59.2388136,21.4949782 57.5739691,19.8125701 C55.9091247,18.1301619 53.1495881,18.063751 51.4163254,19.6797484 L7.92511558,59.94686 C6.19185289,61.5628574 6.12343463,64.2414283 7.78827905,65.9238365 C9.44172043,67.5951762 12.2126601,67.6726555 13.9459228,66.0566582 Z" id="路径"></path>
        </g>
    </g>
</svg>