<?xml version="1.0" encoding="UTF-8"?>
<svg width="32px" height="32px" viewBox="0 0 32 32" version="1.1" xmlns="http://www.w3.org/2000/svg" xmlns:xlink="http://www.w3.org/1999/xlink">
    <!-- Generator: Sketch 52.4 (67378) - http://www.bohemiancoding.com/sketch -->
    <title>colse</title>
    <desc>Created with Sketch.</desc>
    <g id="Page-1" stroke="none" stroke-width="1" fill="none" fill-rule="evenodd">
        <g id="fabuziyuan" transform="translate(-369.000000, -1119.000000)">
            <g id="分组-12" transform="translate(245.000000, 702.000000)">
                <g id="分组-11">
                    <g id="colse" transform="translate(124.000000, 417.000000)">
                        <rect id="矩形" fill="#000000" opacity="0" x="0" y="0" width="32" height="32"></rect>
                        <path d="M4.94625,4.94625 C-1.1475,11.04 -1.1475,20.9584375 4.94625,27.05375 C11.04,33.1490625 20.9584375,33.1475 27.05375,27.05375 C33.1490625,20.96 33.1475,11.0415625 27.05375,4.94625 C20.96,-1.1490625 11.04125,-1.14875 4.94625,4.94625 Z M25.825625,25.825625 C20.40625,31.243125 11.59375,31.243125 6.174375,25.825625 C0.755,20.408125 0.756875,11.59375 6.174375,6.174375 C11.591875,0.755 20.4078125,0.7565625 25.8253125,6.174375 C31.2428125,11.5921875 31.243125,20.40625 25.825625,25.825625 Z" id="形状" fill="#7F92A6" fill-rule="nonzero"></path>
                        <path d="M20.9128125,9.8590625 L16,14.771875 L11.0871875,9.8590625 C10.7473542,9.52403125 10.2008572,9.52597555 9.86341637,9.86341637 C9.52597555,10.2008572 9.52403125,10.7473542 9.8590625,11.0871875 L14.771875,16 L9.8590625,20.9128125 C9.52403125,21.2526458 9.52597555,21.7991428 9.86341637,22.1365836 C10.2008572,22.4740244 10.7473542,22.4759687 11.0871875,22.1409375 L16,17.228125 L20.9128125,22.1409375 C21.2526458,22.4759687 21.7991428,22.4740244 22.1365836,22.1365836 C22.4740244,21.7991428 22.4759687,21.2526458 22.1409375,20.9128125 L17.228125,16 L22.1409375,11.0871875 C22.4759687,10.7473542 22.4740244,10.2008572 22.1365836,9.86341637 C21.7991428,9.52597555 21.2526458,9.52403125 20.9128125,9.8590625 Z" id="路径" fill="#7F92A6"></path>
                    </g>
                </g>
            </g>
        </g>
    </g>
</svg>