<?xml version="1.0" encoding="UTF-8"?>
<svg width="128px" height="128px" viewBox="0 0 128 128" version="1.1" xmlns="http://www.w3.org/2000/svg" xmlns:xlink="http://www.w3.org/1999/xlink">
    <!-- Generator: Sketch 52.4 (67378) - http://www.bohemiancoding.com/sketch -->
    <title>ziyuan-B</title>
    <desc>Created with Sketch.</desc>
    <g id="ziyuan-B" stroke="none" stroke-width="1" fill="none" fill-rule="evenodd">
        <path d="M97.9002571,87.6189242 C103.263653,80.6264935 106.451331,71.8775805 106.451331,62.3841455 C106.451331,54.9525896 104.497949,47.9772705 101.076622,41.9436249 C103.482762,40.1182423 105.462992,37.7606789 106.841995,35.0462535 C118.985643,53.6876647 117.281793,78.1948611 102.722366,94.9644544 C101.68249,92.1980694 100.037943,89.6851643 97.9002571,87.6189242 Z M64.0877451,103.875339 C64.3676629,106.855003 65.3097152,109.697819 66.804563,112.214398 C66.2522683,112.231464 65.6996274,112.238786 65.1468969,112.23635 C43.0319585,112.197523 23.7541077,97.6122047 17.4513312,76.6861306 C18.6030505,76.8923618 19.7889552,77 21,77 C22.6826436,77 24.3167547,76.7922074 25.8780723,76.400883 C31.5344519,92.1666529 46.4617404,103.515536 64.0877451,103.875339 Z M69.5943547,21.1409684 C68.0700797,20.9712775 66.5208809,20.8841455 64.9513312,20.8841455 C50.5516889,20.8841455 37.8649553,28.2179799 30.4225426,39.3542366 C27.9470945,38.0296222 25.1604262,37.2106806 22.2005658,37.0354399 C31.1100396,21.8302817 47.4221388,12.3940316 65.1468969,12.3841455 C67.9980445,12.4069057 70.839456,12.6772472 73.6394289,13.190915 C71.7389766,15.4674595 70.3351291,18.1729667 69.5943547,21.1409684 Z" id="合并形状" fill="#687B8F" fill-rule="nonzero"></path>
        <path d="M78,26.5 C78,32.8512746 83.1487254,38 89.5,38 C95.8512746,38 101,32.8512746 101,26.5 C101,20.1487254 95.8512746,15 89.5,15 C83.1487254,15 78,20.1487254 78,26.5 Z" id="路径" fill="#448BFB"></path>
        <path d="M73,101.5 C72.9996525,105.608438 75.1914642,109.404941 78.7497192,111.45926 C82.3079743,113.51358 86.6920257,113.51358 90.2502808,111.45926 C93.8085358,109.404941 96.0003475,105.608438 96,101.5 C96.0003475,97.3915615 93.8085358,93.5950592 90.2502808,91.5407397 C86.6920257,89.4864201 82.3079743,89.4864201 78.7497192,91.5407397 C75.1914642,93.5950592 72.9996525,97.3915615 73,101.5 Z" id="路径" fill="#448BFB"></path>
        <path d="M10,56.5 C10,62.8512746 15.1487254,68 21.5,68 C27.8512746,68 33,62.8512746 33,56.5 C33,50.1487254 27.8512746,45 21.5,45 C15.1487254,45 10,50.1487254 10,56.5 Z" id="路径" fill="#448BFB"></path>
    </g>
</svg>