<?xml version="1.0" encoding="UTF-8"?>
<svg width="128px" height="128px" viewBox="0 0 128 128" version="1.1" xmlns="http://www.w3.org/2000/svg" xmlns:xlink="http://www.w3.org/1999/xlink">
    <!-- Generator: Sketch 52.4 (67378) - http://www.bohemiancoding.com/sketch -->
    <title>fabu-B</title>
    <desc>Created with Sketch.</desc>
    <g id="fabu-B" stroke="none" stroke-width="1" fill="none" fill-rule="evenodd">
        <g id="发布-1" transform="translate(17.000000, 9.000000)">
            <path d="M37.2082491,31.362244 L44.8742228,23.6200061 L44.8742228,42.5879272 C44.8742228,43.9419761 46.0257878,45.1049973 47.372062,45.1049973 C48.7385409,45.0809906 49.8405677,43.9680004 49.8643379,42.5879272 L49.8643379,23.6143876 L57.5303116,31.3566255 C58.1088756,31.9353269 58.6763135,32.1319731 59.2548776,32.1319731 C59.8334417,32.1319731 60.5955886,31.935327 60.9794435,31.3566255 C61.4418556,30.8962592 61.7021964,30.2678663 61.7021964,29.6120937 C61.7021964,28.9563211 61.4418556,28.3279282 60.9794435,27.8675619 L50.4373388,17.0295524 C49.6251653,16.1981296 48.5278859,15.7134197 47.372062,15.6755036 C46.196814,15.6263095 45.064438,16.1256167 44.3012219,17.0295524 L33.7591172,27.6821527 C33.2998075,28.1430512 33.0415204,28.7699554 33.0415204,29.4238753 C33.0415204,30.0777952 33.2998075,30.7046994 33.7591172,31.1655979 C34.1655666,31.6935907 34.7782631,32.0182392 35.4394132,32.0559335 C36.1005633,32.0936278 36.7455447,31.8406835 37.2082491,31.362244 Z" id="路径" fill="#448BFB"></path>
            <path d="M86.8534958,30.5812781 L78.230666,30.5812781 C78.035957,13.7427533 64.2394295,0 47.372062,0 C30.5046943,0 16.7026037,13.7427533 16.5078947,30.5812781 L7.88506491,30.5812781 C3.55258524,30.6027952 0.0456872623,34.1445812 0.0243820882,38.5201621 L0.0243820882,99.0082453 C0.0243820882,103.267038 3.47351397,106.947129 7.88506491,106.947129 L87.0426417,106.947129 C91.3751214,106.925612 94.8820194,103.383826 94.9033245,99.0082453 L94.9033245,38.5201621 C94.7141786,34.2613694 91.2594836,30.5812781 86.8534958,30.5812781 Z M47.372062,6.79288994 C60.6893241,6.83987915 71.474481,17.7208253 71.5243896,31.1597283 C71.4811122,44.6024105 60.6930569,55.4890147 47.372062,55.5326874 C34.0510669,55.4890147 23.2630116,44.6024106 23.2197342,31.1597283 C23.2630295,17.7180467 34.0520481,6.83320474 47.372062,6.79288994 Z M85.4005158,99.081543 L9.87240001,99.081543 C8.81653502,99.066376 7.96508648,98.2039644 7.953125,97.1375558 L7.953125,41.0990353 C7.953125,40.0427648 8.8265342,39.1606665 9.87240001,39.1606665 L17.5927022,39.1606665 C19.8624535,52.5494569 33.4030777,62.5952635 47.3609356,62.5952635 C61.3187936,62.5952635 74.6090775,52.5494569 76.8732657,39.1606665 L85.0751619,39.1606665 C86.1310659,39.172747 86.9849824,40.0326661 87,41.0990353 L87.3253539,97.1375558 C87.3133296,98.2061196 86.4585539,99.069399 85.4005158,99.081543 Z" id="形状" fill="#687B8F" fill-rule="nonzero"></path>
            <path d="M71.0375572,68.0676435 L23.8400815,68.0676435 C22.5828173,68.0676435 21.4813203,69.5846277 21.4813203,71.3207319 C21.4813203,73.0568362 22.5828173,74.5738203 23.8400815,74.5738202 L70.8817899,74.5738202 C72.1390541,74.5738202 73.2461142,73.0568361 73.2461142,71.3207319 C73.3963182,69.3655079 72.3003844,68.0676435 71.0375572,68.0676435 Z M71.1432563,82.5969812 L23.9402176,82.5969812 C22.6829533,82.5969812 21.5814564,84.1139654 21.5814564,85.8500696 C21.5814564,87.5861737 22.6829533,89.1087764 23.9402176,89.1087764 L70.981926,89.1087764 C72.2391902,89.1087764 73.3462502,87.5861737 73.3462503,85.8500696 C73.3462503,84.1083469 72.4005206,82.5969812 71.1432563,82.5969812 Z" id="形状" fill="#448BFB" fill-rule="nonzero"></path>
        </g>
    </g>
</svg>