<?xml version="1.0" encoding="UTF-8"?>
<svg width="128px" height="128px" viewBox="0 0 128 128" version="1.1" xmlns="http://www.w3.org/2000/svg" xmlns:xlink="http://www.w3.org/1999/xlink">
    <!-- Generator: Sketch 52.4 (67378) - http://www.bohemiancoding.com/sketch -->
    <title>fabu-A</title>
    <desc>Created with Sketch.</desc>
    <g id="fabu-A" stroke="none" stroke-width="1" fill="none" fill-rule="evenodd">
        <path d="M54.2082491,40.362244 L61.8742228,32.6200061 L61.8742228,51.5879272 C61.8742228,52.9419761 63.0257878,54.1049973 64.372062,54.1049973 C65.7385409,54.0809906 66.8405677,52.9680004 66.8643379,51.5879272 L66.8643379,32.6143876 L74.5303116,40.3566255 C75.1088756,40.9353269 75.6763135,41.1319731 76.2548776,41.1319731 C76.8334417,41.1319731 77.5955886,40.935327 77.9794435,40.3566255 C78.4418556,39.8962592 78.7021964,39.2678663 78.7021964,38.6120937 C78.7021964,37.9563211 78.4418556,37.3279282 77.9794435,36.8675619 L67.4373388,26.0295524 C66.6251653,25.1981296 65.5278859,24.7134197 64.372062,24.6755036 C63.196814,24.6263095 62.064438,25.1256167 61.3012219,26.0295524 L50.7591172,36.6821527 C50.2998075,37.1430512 50.0415204,37.7699554 50.0415204,38.4238753 C50.0415204,39.0777952 50.2998075,39.7046994 50.7591172,40.1655979 C51.1655666,40.6935907 51.7782631,41.0182392 52.4394132,41.0559335 C53.1005633,41.0936278 53.7455447,40.8406835 54.2082491,40.362244 Z" id="路径" fill="#8DECEC"></path>
        <path d="M103.853496,39.5812781 L95.230666,39.5812781 C95.035957,22.7427533 81.2394295,9 64.372062,9 C47.5046943,9 33.7026037,22.7427533 33.5078947,39.5812781 L24.8850649,39.5812781 C20.5525852,39.6027952 17.0456873,43.1445812 17.0243821,47.5201621 L17.0243821,108.008245 C17.0243821,112.267038 20.473514,115.947129 24.8850649,115.947129 L104.042642,115.947129 C108.375121,115.925612 111.882019,112.383826 111.903325,108.008245 L111.903325,47.5201621 C111.714179,43.2613694 108.259484,39.5812781 103.853496,39.5812781 Z M64.372062,15.7928899 C77.6893241,15.8398792 88.474481,26.7208253 88.5243896,40.1597283 C88.4811122,53.6024105 77.6930569,64.4890147 64.372062,64.5326874 C51.0510669,64.4890147 40.2630116,53.6024106 40.2197342,40.1597283 C40.2630295,26.7180467 51.0520481,15.8332047 64.372062,15.7928899 Z M102.400516,108.081543 L26.8724,108.081543 C25.816535,108.066376 24.9650865,107.203964 24.953125,106.137556 L24.953125,50.0990353 C24.953125,49.0427648 25.8265342,48.1606665 26.8724,48.1606665 L34.5927022,48.1606665 C36.8624535,61.5494569 50.4030777,71.5952635 64.3609356,71.5952635 C78.3187936,71.5952635 91.6090775,61.5494569 93.8732657,48.1606665 L102.075162,48.1606665 C103.131066,48.172747 103.984982,49.0326661 104,50.0990353 L104.325354,106.137556 C104.31333,107.20612 103.458554,108.069399 102.400516,108.081543 Z" id="形状" fill="#FFFFFF" fill-rule="nonzero"></path>
        <path d="M88.0375572,77.0676435 L40.8400815,77.0676435 C39.5828173,77.0676435 38.4813203,78.5846277 38.4813203,80.3207319 C38.4813203,82.0568362 39.5828173,83.5738203 40.8400815,83.5738202 L87.8817899,83.5738202 C89.1390541,83.5738202 90.2461142,82.0568361 90.2461142,80.3207319 C90.3963182,78.3655079 89.3003844,77.0676435 88.0375572,77.0676435 Z M88.1432563,91.5969812 L40.9402176,91.5969812 C39.6829533,91.5969812 38.5814564,93.1139654 38.5814564,94.8500696 C38.5814564,96.5861737 39.6829533,98.1087764 40.9402176,98.1087764 L87.981926,98.1087764 C89.2391902,98.1087764 90.3462502,96.5861737 90.3462503,94.8500696 C90.3462503,93.1083469 89.4005206,91.5969812 88.1432563,91.5969812 Z" id="形状" fill="#8DECEC" fill-rule="nonzero"></path>
    </g>
</svg>