<?xml version="1.0" encoding="UTF-8"?>
<svg width="128px" height="128px" viewBox="0 0 128 128" version="1.1" xmlns="http://www.w3.org/2000/svg" xmlns:xlink="http://www.w3.org/1999/xlink">
    <!-- Generator: Sketch 52.4 (67378) - http://www.bohemiancoding.com/sketch -->
    <title>dingyue-A</title>
    <desc>Created with Sketch.</desc>
    <g id="dingyue-A" stroke="none" stroke-width="1" fill="none" fill-rule="evenodd">
        <path d="M79.3383477,51.9044838 L67.8118372,51.9044838 L67.8118372,40.3737226 C67.8118372,38.249635 66.0929716,36.5301356 63.9696671,36.5301356 C61.8463625,36.5301356 60.1274969,38.249635 60.1274969,40.3737226 L60.1274969,51.9044838 L48.6009864,51.9044838 C46.4776819,51.9044838 44.7588163,53.6239833 44.7588163,55.7480709 C44.7588163,57.8721585 46.4776819,59.591658 48.6009864,59.591658 L60.1274969,59.591658 L60.1274969,71.1224192 C60.1274969,73.2465068 61.8463625,74.9660063 63.9696671,74.9660063 C66.0929716,74.9660063 67.8118372,73.2465068 67.8118372,71.1224192 L67.8118372,59.591658 L79.3383477,59.591658 C81.4616523,59.591658 83.1805179,57.8721585 83.1805179,55.7480709 C83.1805179,53.6239833 81.4616523,51.9044838 79.3383477,51.9044838 Z" id="路径" fill="#8DECEC"></path>
        <path d="M95.9650879,106.489468 L68.4726697,90.3696842 C66.7711542,89.3649281 64.8757952,88.86255 62.9804362,88.86255 C61.0850771,88.86255 59.178949,89.3649281 57.4882026,90.3696842 L29.8911133,106.489468 L29.8911133,24.8596191 L95.9650879,24.8705404 L95.9650879,106.489468 Z M93.6969174,18 L32.2424168,18 C26.5802713,18 22,22.5920751 22,28.246194 L22,105.097706 C22,109.173931 24.3760789,112.693848 27.8239211,114.342544 C30.0180025,115.394473 32.6165228,115.121376 34.7196054,113.897497 L62.9696671,97.4105318 L91.2197287,113.897497 C93.3228113,115.121376 95.9213317,115.394473 98.1154131,114.342544 C101.563255,112.693848 103.939334,109.173931 103.939334,105.097706 L103.939334,28.246194 C103.949445,22.5920751 99.3590629,18 93.6969174,18 Z" id="形状" fill="#FFFFFF" fill-rule="nonzero"></path>
    </g>
</svg>