<?xml version="1.0" encoding="UTF-8"?>
<svg width="128px" height="128px" viewBox="0 0 128 128" version="1.1" xmlns="http://www.w3.org/2000/svg" xmlns:xlink="http://www.w3.org/1999/xlink">
    <!-- Generator: Sketch 52.4 (67378) - http://www.bohemiancoding.com/sketch -->
    <title>dingyue-B</title>
    <desc>Created with Sketch.</desc>
    <g id="dingyue-B" stroke="none" stroke-width="1" fill="none" fill-rule="evenodd">
        <path d="M79.3383477,51.9044838 L67.8118372,51.9044838 L67.8118372,40.3737226 C67.8118372,38.249635 66.0929716,36.5301356 63.9696671,36.5301356 C61.8463625,36.5301356 60.1274969,38.249635 60.1274969,40.3737226 L60.1274969,51.9044838 L48.6009864,51.9044838 C46.4776819,51.9044838 44.7588163,53.6239833 44.7588163,55.7480709 C44.7588163,57.8721585 46.4776819,59.591658 48.6009864,59.591658 L60.1274969,59.591658 L60.1274969,71.1224192 C60.1274969,73.2465068 61.8463625,74.9660063 63.9696671,74.9660063 C66.0929716,74.9660063 67.8118372,73.2465068 67.8118372,71.1224192 L67.8118372,59.591658 L79.3383477,59.591658 C81.4616523,59.591658 83.1805179,57.8721585 83.1805179,55.7480709 C83.1805179,53.6239833 81.4616523,51.9044838 79.3383477,51.9044838 Z" id="路径" fill="#448BFB"></path>
        <path d="M96.9650879,106.489468 L69.4726697,90.3696842 C67.7711542,89.3649281 65.8757952,88.86255 63.9804362,88.86255 C62.0850771,88.86255 60.178949,89.3649281 58.4882026,90.3696842 L30.8911133,106.489468 L30.8911133,24.8596191 L96.9650879,24.8705404 L96.9650879,106.489468 Z M94.6969174,18 L33.2424168,18 C27.5802713,18 23,22.5920751 23,28.246194 L23,105.097706 C23,109.173931 25.3760789,112.693848 28.8239211,114.342544 C31.0180025,115.394473 33.6165228,115.121376 35.7196054,113.897497 L63.9696671,97.4105318 L92.2197287,113.897497 C94.3228113,115.121376 96.9213317,115.394473 99.1154131,114.342544 C102.563255,112.693848 104.939334,109.173931 104.939334,105.097706 L104.939334,28.246194 C104.949445,22.5920751 100.359063,18 94.6969174,18 Z" id="形状" fill="#687B8F" fill-rule="nonzero"></path>
    </g>
</svg>