<?xml version="1.0" encoding="UTF-8"?>
<svg width="69px" height="64px" viewBox="0 0 69 64" version="1.1" xmlns="http://www.w3.org/2000/svg" xmlns:xlink="http://www.w3.org/1999/xlink">
    <!-- Generator: Sketch 52.4 (67378) - http://www.bohemiancoding.com/sketch -->
    <title>分组 3@1x</title>
    <desc>Created with Sketch.</desc>
    <g id="Page-1" stroke="none" stroke-width="1" fill="none" fill-rule="evenodd">
        <g id="jiankong-copy" transform="translate(-136.000000, -730.000000)">
            <g id="分组-3" transform="translate(136.000000, 730.000000)">
                <ellipse id="椭圆形" fill="#F7F7F7" cx="34.5" cy="54.5" rx="34.5" ry="9.5"></ellipse>
                <rect id="矩形" fill="#F7F7F7" x="9" y="1" width="40" height="46" rx="3"></rect>
                <rect id="矩形-copy-7" fill="#FFFFFF" x="14" y="6" width="46" height="52" rx="3"></rect>
                <g id="分组-10" transform="translate(8.000000, 0.000000)" fill="#E2E2E2">
                    <g id="暂无数据-2" fill-rule="nonzero">
                        <path d="M9.30403563,5.97468354 C7.32043028,5.97468354 5.99802672,7.29050633 5.99802672,9.26424051 L5.99802672,54.318038 C5.99802672,56.2917722 7.32043028,57.6075949 9.30403563,57.6075949 L48.2821514,57.6075949 C50.2657568,57.6075949 51.5881603,56.2917722 51.5881603,54.318038 L51.5881603,9.26424051 C51.5881603,7.29050633 50.2657568,5.97468354 48.2821514,5.97468354 L9.30403563,5.97468354 Z M40.1901336,4.58227848 C40.1901336,2.66835443 39.9103967,1.39240506 37.9907914,1.39240506 L4.59868448,1.39240506 C2.67907914,1.39240506 1.39934224,2.66835443 1.39934224,4.58227848 L1.39934224,44.0506329 C1.39934224,45.964557 2.67907914,46.2405063 4.59868448,46.2405063 L4.59868448,9.96202532 C4.59868448,6.45316456 6.4780925,4.58227848 9.99736896,4.58227848 L40.1901336,4.58227848 Z M41.5894758,4.58227848 L47.5888181,4.58227848 C51.1080946,4.58227848 52.9875026,6.45316456 52.9875026,9.96202532 L52.9875026,53.6202532 C52.9875026,57.1291139 51.1080946,59 47.5888181,59 L9.99736896,59 C6.4780925,59 4.59868448,57.1291139 4.59868448,53.6202532 L4.59868448,47.6329114 C1.07940802,47.6329114 0,47.5594937 0,44.0506329 L0,5.37974684 C0,1.87088608 0.879408016,-9.55475282e-13 4.39868448,-9.55475282e-13 L37.9907914,-9.55475282e-13 C41.5100678,-9.55475282e-13 41.5894758,1.07341772 41.5894758,4.58227848 Z" id="形状"></path>
                        <polygon id="形状" points="11 48 47 48 47 49 11 49"></polygon>
                        <path d="M16,36 L19,36 L19,47 L16,47 L16,36 Z M22,42 L25,42 L25,47 L22,47 L22,42 Z M40,42 L43,42 L43,47 L40,47 L40,42 Z M28,38 L31,38 L31,47 L28,47 L28,38 Z M34,37 L37,37 L37,47 L34,47 L34,37 Z" id="形状"></path>
                    </g>
                    <g id="分组" transform="translate(20.000000, 13.000000)">
                        <path d="M7.92367734,2.43544304 L7.92367734,10.6736379 L15.84,10.6736379 C15.6596308,14.8746422 12.1843745,18.2253165 7.92367734,18.2253165 C3.54755118,18.2253165 0,14.6906329 0,10.3303797 C0,5.9701266 3.54755118,2.43544304 7.92367734,2.43544304 Z" id="合并形状"></path>
                        <path d="M18.277655,9.33037975 L9.64,9.33037975 L9.64,0 C14.4303322,0.112714293 18.28,4.15194834 18.28,9.11827071 C18.28,9.18916555 18.2792155,9.25987147 18.277655,9.33037975 Z" id="路径"></path>
                    </g>
                </g>
            </g>
        </g>
    </g>
</svg>