<?xml version="1.0" encoding="UTF-8"?>
<svg width="24px" height="24px" viewBox="0 0 24 24" version="1.1" xmlns="http://www.w3.org/2000/svg" xmlns:xlink="http://www.w3.org/1999/xlink">
    <!-- Generator: Sketch 63.1 (92452) - https://sketch.com -->
    <title>fwdt-icon-f1</title>
    <desc>Created with Sketch.</desc>
    <g id="fwdt-icon-f1" stroke="none" stroke-width="1" fill="none" fill-rule="evenodd">
        <g id="点-外部" fill="#FFE58F" opacity="0.836588542">
            <circle id="椭圆形-copy-2" cx="12" cy="12" r="12"></circle>
        </g>
        <path d="M11.656,17.872 C13.016,17.872 14.088,17.584 14.888,17.024 C15.688,16.448 16.088,15.648 16.088,14.656 C16.088,13.616 15.608,12.816 14.664,12.24 C14.184,11.952 13.192,11.584 11.688,11.136 C10.584,10.816 9.88,10.576 9.592,10.416 C8.936,10.064 8.616,9.6 8.616,9.024 C8.616,8.368 8.888,7.888 9.432,7.568 C9.912,7.28 10.568,7.152 11.416,7.152 C12.344,7.152 13.064,7.344 13.576,7.76 C14.072,8.16 14.392,8.768 14.536,9.6 L15.832,9.6 C15.72,8.4 15.288,7.488 14.52,6.88 C13.784,6.288 12.76,6 11.48,6 C10.296,6 9.32,6.256 8.568,6.768 C7.72,7.312 7.304,8.096 7.304,9.088 C7.304,10.048 7.736,10.784 8.616,11.296 C8.984,11.488 9.864,11.808 11.24,12.224 C12.52,12.592 13.336,12.864 13.656,13.056 C14.408,13.456 14.792,14.016 14.792,14.736 C14.792,15.344 14.504,15.824 13.928,16.176 C13.352,16.528 12.584,16.704 11.656,16.704 C10.632,16.704 9.864,16.48 9.336,16.064 C8.76,15.6 8.408,14.864 8.296,13.872 L7,13.872 C7.096,15.28 7.592,16.32 8.488,17.008 C9.256,17.584 10.312,17.872 11.656,17.872 Z" id="S" fill="#C06304" fill-rule="nonzero"></path>
    </g>
</svg>
