<?xml version="1.0" encoding="UTF-8"?>
<svg width="44px" height="44px" viewBox="0 0 44 44" version="1.1" xmlns="http://www.w3.org/2000/svg" xmlns:xlink="http://www.w3.org/1999/xlink">
    <!-- Generator: Sketch 63.1 (92452) - https://sketch.com -->
    <title>fwdt-icon-b3</title>
    <desc>Created with Sketch.</desc>
    <g id="fwdt-icon-b3" stroke="none" stroke-width="1" fill="none" fill-rule="evenodd">
        <g id="spot-red">
            <path d="M41.4429274,29.3431837 L43.3201667,31.2200894 C42.1903268,33.8347599 40.5571348,36.2840468 38.4205908,38.4205908 C35.8940725,40.9471091 32.9302248,42.7697565 29.7727217,43.8885328 L27.8318405,41.9481935 C34.1058014,40.1170677 39.1517812,35.406447 41.4429274,29.3431837 Z M2.29229707,28.5997677 C4.35641579,34.7661467 9.2335983,39.6433949 15.3999361,41.7076038 L13.4932372,43.6143497 C10.6108033,42.4816074 7.90917282,40.7503544 5.57940919,38.4205908 C3.24937241,36.090554 1.51798664,33.3885632 0.385251888,30.5057489 Z M12.7799106,0.679833344 L14.6568163,2.55707263 C8.59355302,4.84821885 3.88293229,9.89419863 2.05180653,16.1681595 L0.111467216,14.2272783 C1.23024353,11.0697752 3.05289086,8.10592753 5.57940919,5.57940919 C7.71595321,3.44286517 10.1652401,1.80967322 12.7799106,0.679833344 Z M30.5057489,0.385251888 C33.3885632,1.51798664 36.090554,3.24937241 38.4205908,5.57940919 C40.7503544,7.90917282 42.4816074,10.6108033 43.6143497,13.4932372 L41.7077029,15.4002323 C39.6434731,9.23352128 34.7658765,4.3560799 28.599068,2.29206287 L30.5057489,0.385251888 Z" id="合并形状" fill="#FE5562" fill-rule="evenodd"></path>
            <path d="M22,40.3333333 C32.1252204,40.3333333 40.3333333,32.1252204 40.3333333,22 C40.3333333,11.8747796 32.1252204,3.66666667 22,3.66666667 C11.8747796,3.66666667 3.66666667,11.8747796 3.66666667,22 C3.66666667,32.1252204 11.8747796,40.3333333 22,40.3333333 Z" id="路径" fill="#FF235F" fill-rule="nonzero"></path>
        </g>
        <g id="icon-gx-sq" transform="translate(28.000000, 0.000000)">
            <circle id="椭圆形" fill="#000000" fill-rule="evenodd" cx="8" cy="8" r="7"></circle>
            <path d="M11.9090909,8 C11.9090909,7.69875377 11.6648826,7.45454545 11.3636364,7.45454545 L4.63636364,7.45454545 C4.33511741,7.45454545 4.09090909,7.69875377 4.09090909,8 C4.09090909,8.30124623 4.33511741,8.54545455 4.63636364,8.54545455 L11.3636364,8.54545455 C11.6648826,8.54545455 11.9090909,8.30124623 11.9090909,8 L11.9090909,8 Z" id="路径" fill="#FFFFFF" fill-rule="nonzero"></path>
            <path d="M11.9090909,8 C11.9090909,7.69875377 11.6648826,7.45454545 11.3636364,7.45454545 L4.63636364,7.45454545 C4.33511741,7.45454545 4.09090909,7.69875377 4.09090909,8 C4.09090909,8.30124623 4.33511741,8.54545455 4.63636364,8.54545455 L11.3636364,8.54545455 C11.6648826,8.54545455 11.9090909,8.30124623 11.9090909,8 L11.9090909,8 Z" id="路径" fill="#FFFFFF" fill-rule="nonzero" transform="translate(8.000000, 8.000000) rotate(-270.000000) translate(-8.000000, -8.000000) "></path>
        </g>
        <g id="spot-icon-1" transform="translate(8.000000, 8.000000)">
            <g id="医院" transform="translate(4.666667, 4.666667)">
                <g id="分组">
                    <rect id="矩形" fill="#000000" opacity="0" x="0" y="0" width="18.6666667" height="18.6666667"></rect>
                    <path d="M4.97194444,11.8047222 L8.925,11.8047222 L8.925,12.7932778 L4.97194444,12.7932778 L4.97194444,11.8047222 Z M7.44333333,5.38027778 L7.44333333,3.89861111 L6.45555556,3.89861111 L6.45555556,5.38027778 L4.97194444,5.38027778 L4.97194444,6.36805556 L6.45555556,6.36805556 L6.45555556,7.85166667 L7.44333333,7.85166667 L7.44333333,6.36805556 L8.925,6.36805556 L8.925,5.38027778 L7.44333333,5.38027778 Z M4.97194444,9.33333333 L8.925,9.33333333 L8.925,10.3213056 L4.97194444,10.3213056 L4.97194444,9.33333333 Z M13.3719444,11.8047222 L14.3597222,11.8047222 L14.3597222,12.7930833 L13.3719444,12.7930833 L13.3719444,11.8047222 Z" id="形状" fill="#FFFFFF" fill-rule="nonzero"></path>
                    <path d="M15.3902778,6.86194444 L11.8902778,6.86194444 L11.8902778,2.9925 C11.8902778,1.97555556 11.4372222,1.42722222 10.4086111,1.42722222 L3.53111111,1.42722222 C2.48888889,1.42722222 2.00666667,2.00277778 2.00666667,2.90888889 L2.00666667,17.2394444 L16.8311111,17.2394444 L16.8311111,8.30277778 C16.8311111,7.32861111 16.3644444,6.86194444 15.3902778,6.86194444 Z M10.9025,6.86194444 L10.9025,16.2516667 L8.925,16.2516667 L8.925,14.2741667 L4.97194444,14.2741667 L4.97194444,16.2516667 L2.99638889,16.2516667 L2.99638889,3.40277778 C2.99638889,2.86805556 3.36583333,2.415 3.98416667,2.415 L9.91472222,2.415 C10.4494444,2.415 10.9025,2.86805556 10.9025,3.40277778 L10.9025,6.86194444 L10.9025,6.86194444 Z M15.8433333,16.2516667 L14.3616667,16.2516667 L14.3616667,14.2741667 L13.3719444,14.2741667 L13.3719444,16.2516667 L11.8902778,16.2516667 L11.8902778,7.85166667 L14.8555556,7.85166667 C15.3494444,7.85166667 15.8433333,8.30472222 15.8433333,8.83944444 L15.8433333,16.2516667 L15.8433333,16.2516667 Z" id="形状" fill="#FFFFFF" fill-rule="nonzero"></path>
                    <polygon id="路径" fill="#FFFFFF" points="13.3719444 9.33333333 14.3597222 9.33333333 14.3597222 10.3213056 13.3719444 10.3213056"></polygon>
                </g>
            </g>
        </g>
    </g>
</svg>
