<?xml version="1.0" encoding="UTF-8"?>
<svg width="24px" height="24px" viewBox="0 0 24 24" version="1.1" xmlns="http://www.w3.org/2000/svg" xmlns:xlink="http://www.w3.org/1999/xlink">
    <!-- Generator: Sketch 63.1 (92452) - https://sketch.com -->
    <title>fwdt-icon-e1</title>
    <desc>Created with Sketch.</desc>
    <g id="fwdt-icon-e1" stroke="none" stroke-width="1" fill="none" fill-rule="evenodd">
        <g id="点-green-2" fill="#C9F4C7" opacity="0.836588542">
            <circle id="椭圆形-copy-2" cx="12" cy="12" r="12"></circle>
        </g>
        <path d="M13.072,17.424 C14.24,17.424 15.168,17.184 15.84,16.736 C16.624,16.192 17.024,15.36 17.024,14.24 C17.024,13.472 16.8,12.864 16.384,12.384 C15.968,11.904 15.392,11.584 14.64,11.456 C15.216,11.264 15.68,10.96 16.032,10.544 C16.368,10.08 16.544,9.52 16.544,8.88 C16.544,7.984 16.24,7.28 15.632,6.768 C15.008,6.256 14.16,6 13.104,6 L8,6 L8,17.424 L13.072,17.424 Z M12.784,10.992 L9.312,10.992 L9.312,7.104 L12.8,7.104 C13.6,7.104 14.208,7.248 14.624,7.568 C15.04,7.888 15.248,8.368 15.248,9.008 C15.248,9.664 15.024,10.16 14.608,10.496 C14.192,10.816 13.584,10.992 12.784,10.992 Z M12.96,16.32 L9.312,16.32 L9.312,12.08 L12.96,12.08 C13.84,12.08 14.512,12.24 14.976,12.592 C15.456,12.944 15.712,13.488 15.712,14.224 C15.712,14.96 15.424,15.52 14.864,15.872 C14.384,16.16 13.76,16.32 12.96,16.32 Z" id="B" fill="#04C0A2" fill-rule="nonzero"></path>
    </g>
</svg>
