<?xml version="1.0" encoding="UTF-8"?>
<svg width="44px" height="44px" viewBox="0 0 44 44" version="1.1" xmlns="http://www.w3.org/2000/svg" xmlns:xlink="http://www.w3.org/1999/xlink">
    <!-- Generator: Sketch 63.1 (92452) - https://sketch.com -->
    <title>fwdt-icon-a1</title>
    <desc>Created with Sketch.</desc>
    <g id="fwdt-icon-a1" stroke="none" stroke-width="1" fill="none" fill-rule="evenodd">
        <g id="点-blue" fill="#2A9EFF">
            <circle id="椭圆形-copy-2" cx="22" cy="22" r="22"></circle>
        </g>
        <g id="icon-gx-sq" transform="translate(28.000000, 0.000000)">
            <circle id="椭圆形" fill="#000000" fill-rule="evenodd" cx="8" cy="8" r="7"></circle>
            <path d="M11.9090909,8 C11.9090909,7.69875377 11.6648826,7.45454545 11.3636364,7.45454545 L4.63636364,7.45454545 C4.33511741,7.45454545 4.09090909,7.69875377 4.09090909,8 C4.09090909,8.30124623 4.33511741,8.54545455 4.63636364,8.54545455 L11.3636364,8.54545455 C11.6648826,8.54545455 11.9090909,8.30124623 11.9090909,8 L11.9090909,8 Z" id="路径" fill="#FFFFFF" fill-rule="nonzero"></path>
            <path d="M11.9090909,8 C11.9090909,7.69875377 11.6648826,7.45454545 11.3636364,7.45454545 L4.63636364,7.45454545 C4.33511741,7.45454545 4.09090909,7.69875377 4.09090909,8 C4.09090909,8.30124623 4.33511741,8.54545455 4.63636364,8.54545455 L11.3636364,8.54545455 C11.6648826,8.54545455 11.9090909,8.30124623 11.9090909,8 L11.9090909,8 Z" id="路径" fill="#FFFFFF" fill-rule="nonzero" transform="translate(8.000000, 8.000000) rotate(-270.000000) translate(-8.000000, -8.000000) "></path>
        </g>
        <g id="spot-icon-2" transform="translate(8.000000, 8.000000)">
            <g id="系统管理" transform="translate(4.666667, 4.666667)">
                <g id="分组">
                    <rect id="矩形" fill="#000000" opacity="0" x="0" y="0" width="18.6666667" height="18.6666667"></rect>
                    <path d="M16.8,1.86666667 L1.86666667,1.86666667 C1.17937897,1.86666667 0.622222216,2.42382343 0.622222216,3.11111112 L0.622222216,13.0666667 C0.622222216,13.7539544 1.17937897,14.3111111 1.86666667,14.3111111 L8.71111112,14.3111111 L8.71111112,15.5555555 L6.22222222,15.5555555 C5.87857837,15.5555555 5.59999999,15.8341339 5.59999999,16.1777778 C5.59999999,16.5214216 5.87857837,16.8 6.22222222,16.8 L12.4444445,16.8 C12.7880883,16.8 13.0666667,16.5214216 13.0666667,16.1777778 C13.0666667,15.8341339 12.7880883,15.5555555 12.4444445,15.5555555 L9.95555555,15.5555555 L9.95555555,14.3111111 L16.8,14.3111111 C17.4872877,14.3111111 18.0444445,13.7539544 18.0444445,13.0666667 L18.0444445,3.11111112 C18.0444445,2.42382343 17.4872877,1.86666667 16.8,1.86666667 Z M16.8,3.11111112 L16.8,11.2 L1.86666667,11.2 L1.86666667,3.11111112 L16.8,3.11111112 Z M1.86666667,13.0666667 L1.86666667,12.4444445 L16.8,12.4444445 L16.8,13.0666667 L1.86666667,13.0666667 Z M3.73333333,9.95559379 C3.85566257,9.95695413 3.97535113,9.91995949 4.07555555,9.84977778 L7.46666667,7.57866667 L10.2417778,9.24622222 C10.4479842,9.38026046 10.7137936,9.38026046 10.92,9.24622222 L15.2755555,6.13511112 C15.477926,6.01525618 15.5954199,5.79153525 15.5792242,5.55689357 C15.5630285,5.3222519 15.4159114,5.11679525 15.198993,5.02588096 C14.9820745,4.93496667 14.7324312,4.97413412 14.5537778,5.12711112 L10.5777778,7.97066667 L7.81511112,6.30933333 C7.61334262,6.18322767 7.35732405,6.18322767 7.15555555,6.30933333 L3.42222222,8.79822222 C3.18220267,8.94060832 3.06634562,9.22538755 3.13879394,9.49489529 C3.21124226,9.76440304 3.45427228,9.95270725 3.73333333,9.95559379 Z" id="形状" fill="#FFFFFF" fill-rule="nonzero"></path>
                </g>
            </g>
        </g>
    </g>
</svg>
