<?xml version="1.0" encoding="UTF-8"?>
<svg width="24px" height="24px" viewBox="0 0 24 24" version="1.1" xmlns="http://www.w3.org/2000/svg" xmlns:xlink="http://www.w3.org/1999/xlink">
    <!-- Generator: Sketch 63.1 (92452) - https://sketch.com -->
    <title>fwdt-icon-c2</title>
    <desc>Created with Sketch.</desc>
    <g id="fwdt-icon-c2" stroke="none" stroke-width="1" fill="none" fill-rule="evenodd">
        <g id="spot-red">
            <path d="M22.605339,16.0050926 L23.6289915,17.0295801 C23.0127221,18.4555987 22.1219536,19.7914182 20.9566859,20.9566859 C19.5784085,22.3349633 17.9615268,23.3292126 16.2390048,23.9394341 L15.1807915,22.8808948 C18.6031472,21.882115 21.3556467,19.3125307 22.605339,16.0050926 Z M1.25042905,15.6001278 C2.37635062,18.963456 5.03654401,21.6236494 8.39987224,22.749571 L7.36066633,23.7899277 C5.78816,23.1720736 4.31428791,22.2276597 3.0433141,20.9566859 C1.7724693,19.6858411 0.828118069,18.2121392 0.210260416,16.6398125 Z M6.97041986,0.371008538 L7.99490737,1.39466098 C4.68779162,2.64423157 2.11838578,5.39631637 1.11939725,8.818208 L0.0605659204,7.76099516 C0.670787354,6.0384732 1.66503675,4.42159146 3.0433141,3.0433141 C4.20858177,1.87804644 5.54440135,0.987277914 6.97041986,0.371008538 Z M16.6398125,0.210260416 C18.2121392,0.828118069 19.6858411,1.7724693 20.9566859,3.0433141 C22.2276597,4.31428791 23.1720736,5.78816 23.7899277,7.36066633 L22.749904,8.40086733 C21.6241741,5.03706872 18.9637877,2.37646165 15.6001278,1.25042905 L16.6398125,0.210260416 Z" id="合并形状" fill="#FE5562" fill-rule="evenodd"></path>
            <path d="M12,22 C17.5228475,22 22,17.5228475 22,12 C22,6.4771525 17.5228475,2 12,2 C6.4771525,2 2,6.4771525 2,12 C2,17.5228475 6.4771525,22 12,22 Z" id="路径" fill="#FF235F" fill-rule="nonzero"></path>
        </g>
        <g id="点-icon-4" transform="translate(2.000000, 2.000000)" fill="#FFFFFF">
            <g id="服务需求" transform="translate(3.333333, 3.333333)">
                <g id="分组">
                    <rect id="矩形" opacity="0" x="0" y="0" width="13.3333333" height="13.3333333"></rect>
                    <path d="M6.95833333,6.95125 L9.93041667,6.95125 C11.5833333,6.95125 12.9166667,8.26916667 12.9166667,9.92 C12.9166667,11.5370833 11.6504167,12.8616667 10.0454167,12.915 L9.94458333,12.9166732 C8.33449011,12.9200123 7.01290099,11.6438107 6.96,10.0345833 L6.95833333,9.93375 L6.95833333,6.95125 L6.95833333,6.95125 Z M6.38875218,6.95125 L6.38875218,9.92 C6.39068039,11.5300728 5.1130195,12.8503593 3.50375,12.90125 L3.40291667,12.9029232 C2.61098354,12.904578 1.85095919,12.5909475 1.29066405,12.0312778 C0.730368915,11.4716081 0.41588982,10.7119345 0.416665231,9.92 C0.416665231,8.31625 1.69583333,7.00541667 3.30208333,6.95291667 L3.40291667,6.95125 L6.38875218,6.95125 L6.38875218,6.95125 Z M9.93041667,7.78458333 L7.79166467,7.78458333 L7.79166467,9.93375 C7.79088854,10.5046712 8.01756998,11.0523841 8.42158524,11.4557739 C8.8256005,11.8591636 9.37366404,12.0849961 9.94458333,12.0833425 C11.1291667,12.0833425 12.0833333,11.1183333 12.0833333,9.92 C12.0833333,8.73333333 11.1270833,7.78458333 9.93041667,7.78458333 Z M5.55541866,7.78458333 L3.40291667,7.78458333 C2.21125,7.78458333 1.249998,8.74166667 1.249998,9.92 C1.24922187,10.4909212 1.47590331,11.0386341 1.87991857,11.4420239 C2.28393383,11.8454136 2.83199737,12.0712461 3.40291667,12.0695925 C3.97376386,12.0711351 4.52172012,11.8452536 4.9256451,11.4418759 C5.32957009,11.0384982 5.55619439,10.4908488 5.55541866,9.92 L5.55541866,7.78458333 L5.55541866,7.78458333 Z M3.40291667,0.416666667 C5.00833333,0.416666667 6.32041667,1.69458333 6.38625,3.29875 L6.38875,3.39958333 L6.38875,6.3820899 L3.40291667,6.3820899 C2.61112806,6.38374416 1.85123038,6.07022798 1.29095932,5.51073867 C0.730688266,4.95124935 0.41611138,4.19179015 0.416664498,3.4 C0.41474319,1.78977049 1.69265012,0.469420445 3.30208333,0.41875 L3.40291667,0.416666667 Z M9.93041667,0.4166601 C10.7223498,0.415005348 11.4823741,0.728635806 12.0426693,1.28830553 C12.6029644,1.84797525 12.9174435,2.60764884 12.9166681,3.39958333 C12.9166681,5.00291667 11.6375,6.31375 10.03125,6.37958333 L9.93041667,6.38208333 L6.94458115,6.38208333 L6.94458115,3.4 C6.94265294,1.78992718 8.22031383,0.469640691 9.82958333,0.41875 L9.93041667,0.4166601 Z M3.40291667,1.24999088 C2.83199737,1.24833724 2.28393383,1.47416973 1.87991857,1.87755946 C1.47590331,2.28094919 1.24922187,2.82866215 1.249998,3.39958333 C1.24933277,3.97043236 1.47606316,4.51803805 1.88006635,4.92133754 C2.28406954,5.32463704 2.83206967,5.55041241 3.40291667,5.54875912 L5.55541667,5.54875912 L5.55541667,3.40666667 C5.54583333,2.21166667 4.58333333,1.24999088 3.40291667,1.24999088 Z M9.93041667,1.24999088 C9.35956947,1.24844825 8.81161322,1.47432977 8.40768823,1.87770743 C8.00376325,2.28108509 7.77713895,2.82873456 7.77791467,3.39958333 L7.77791467,5.54875 L9.92375,5.54875 C11.1204167,5.53875 12.0833359,4.57708333 12.0833359,3.4 C12.0842224,2.82900666 11.8575899,2.28118643 11.4535626,1.87770645 C11.0495352,1.47422647 10.5014083,1.24833686 9.93041667,1.24999088 Z" id="形状" fill-rule="nonzero"></path>
                </g>
            </g>
        </g>
    </g>
</svg>
