<?xml version="1.0" encoding="UTF-8"?>
<svg width="24px" height="24px" viewBox="0 0 24 24" version="1.1" xmlns="http://www.w3.org/2000/svg" xmlns:xlink="http://www.w3.org/1999/xlink">
    <!-- Generator: Sketch 63.1 (92452) - https://sketch.com -->
    <title>fwdt-icon-e2</title>
    <desc>Created with Sketch.</desc>
    <g id="fwdt-icon-e2" stroke="none" stroke-width="1" fill="none" fill-rule="evenodd">
        <g id="spot-red">
            <path d="M22.605339,16.0050926 L23.6289915,17.0295801 C23.0127221,18.4555987 22.1219536,19.7914182 20.9566859,20.9566859 C19.5784085,22.3349633 17.9615268,23.3292126 16.2390048,23.9394341 L15.1807915,22.8808948 C18.6031472,21.882115 21.3556467,19.3125307 22.605339,16.0050926 Z M1.25042905,15.6001278 C2.37635062,18.963456 5.03654401,21.6236494 8.39987224,22.749571 L7.36066633,23.7899277 C5.78816,23.1720736 4.31428791,22.2276597 3.0433141,20.9566859 C1.7724693,19.6858411 0.828118069,18.2121392 0.210260416,16.6398125 Z M6.97041986,0.371008538 L7.99490737,1.39466098 C4.68779162,2.64423157 2.11838578,5.39631637 1.11939725,8.818208 L0.0605659204,7.76099516 C0.670787354,6.0384732 1.66503675,4.42159146 3.0433141,3.0433141 C4.20858177,1.87804644 5.54440135,0.987277914 6.97041986,0.371008538 Z M16.6398125,0.210260416 C18.2121392,0.828118069 19.6858411,1.7724693 20.9566859,3.0433141 C22.2276597,4.31428791 23.1720736,5.78816 23.7899277,7.36066633 L22.749904,8.40086733 C21.6241741,5.03706872 18.9637877,2.37646165 15.6001278,1.25042905 L16.6398125,0.210260416 Z" id="合并形状" fill="#FE5562" fill-rule="evenodd"></path>
            <path d="M12,22 C17.5228475,22 22,17.5228475 22,12 C22,6.4771525 17.5228475,2 12,2 C6.4771525,2 2,6.4771525 2,12 C2,17.5228475 6.4771525,22 12,22 Z" id="路径" fill="#FF235F" fill-rule="nonzero"></path>
        </g>
        <path d="M13.072,17.424 C14.24,17.424 15.168,17.184 15.84,16.736 C16.624,16.192 17.024,15.36 17.024,14.24 C17.024,13.472 16.8,12.864 16.384,12.384 C15.968,11.904 15.392,11.584 14.64,11.456 C15.216,11.264 15.68,10.96 16.032,10.544 C16.368,10.08 16.544,9.52 16.544,8.88 C16.544,7.984 16.24,7.28 15.632,6.768 C15.008,6.256 14.16,6 13.104,6 L8,6 L8,17.424 L13.072,17.424 Z M12.784,10.992 L9.312,10.992 L9.312,7.104 L12.8,7.104 C13.6,7.104 14.208,7.248 14.624,7.568 C15.04,7.888 15.248,8.368 15.248,9.008 C15.248,9.664 15.024,10.16 14.608,10.496 C14.192,10.816 13.584,10.992 12.784,10.992 Z M12.96,16.32 L9.312,16.32 L9.312,12.08 L12.96,12.08 C13.84,12.08 14.512,12.24 14.976,12.592 C15.456,12.944 15.712,13.488 15.712,14.224 C15.712,14.96 15.424,15.52 14.864,15.872 C14.384,16.16 13.76,16.32 12.96,16.32 Z" id="B" fill="#FFFFFF" fill-rule="nonzero"></path>
    </g>
</svg>
