<?xml version="1.0" encoding="UTF-8"?>
<svg width="72px" height="72px" viewBox="0 0 72 72" version="1.1" xmlns="http://www.w3.org/2000/svg" xmlns:xlink="http://www.w3.org/1999/xlink">
    <!-- Generator: Sketch 63.1 (92452) - https://sketch.com -->
    <title>fwdt-icon-c2</title>
    <desc>Created with Sketch.</desc>
    <defs>
        <linearGradient x1="44.7113391%" y1="94.1010367%" x2="92.5645616%" y2="29.804145%" id="linearGradient-1">
            <stop stop-color="#54F3FF" offset="0%"></stop>
            <stop stop-color="#1494FF" offset="100%"></stop>
        </linearGradient>
        <linearGradient x1="8.22104226%" y1="57.3633147%" x2="91.7789577%" y2="57.3633147%" id="linearGradient-2">
            <stop stop-color="#00FF9D" offset="0%"></stop>
            <stop stop-color="#0358FF" offset="100%"></stop>
        </linearGradient>
        <linearGradient x1="10.8605275%" y1="57.3633147%" x2="91.7789577%" y2="57.3633147%" id="linearGradient-3">
            <stop stop-color="#FFFFFF" offset="0%"></stop>
            <stop stop-color="#008BFF" offset="100%"></stop>
        </linearGradient>
    </defs>
    <g id="fwdt-icon-c2" stroke="none" stroke-width="1" fill="none" fill-rule="evenodd">
        <g id="spot-icon-0">
            <g id="分组">
                <circle id="椭圆形-copy-2" fill="url(#linearGradient-1)" cx="36" cy="36" r="36"></circle>
                <circle id="椭圆形-copy-2" fill="url(#linearGradient-2)" opacity="0.628115699" cx="36" cy="44" r="28"></circle>
                <circle id="椭圆形-copy-3" fill="url(#linearGradient-3)" opacity="0.494721912" cx="36" cy="28" r="28"></circle>
            </g>
            <circle id="椭圆形" fill="#000000" cx="36.5" cy="36.5" r="24.5"></circle>
            <g id="logo" transform="translate(21.000000, 21.000000)" fill="#FFFFFF">
                <g id="资源共享">
                    <g transform="translate(1.937500, 1.937500)">
                        <path d="M12.8730664,7.68144849 C12.362063,7.34054831 13.8950732,9.89729969 13.8950732,9.3859494 C16.2797557,8.19279878 19.0051072,8.36324887 21.2194553,9.72684959 C24.9668135,11.9427008 26.3294893,16.8857534 24.1151412,20.8061055 C22.582131,23.703757 19.3457761,25.0673577 16.4500902,24.7264576 C15.9390868,25.2378078 15.257749,25.7491581 14.5764111,26.2605084 C18.8347727,27.6241091 23.4338033,25.7491581 25.8184859,21.6583559 C28.5438373,16.8857534 26.8404926,10.9200002 22.2414621,8.02234868 C19.3457761,6.31784777 15.7687523,6.14739768 12.8730664,7.68144849 Z" id="路径" fill-rule="nonzero"></path>
                        <path d="M19.3529693,17.6056708 C20.0345821,17.4353448 17.1377277,17.2650189 17.4785341,17.4353448 C17.3081308,20.1605603 15.774502,22.5451239 13.5592604,23.9077317 C9.81038989,26.1219693 4.86869701,24.9296875 2.82385855,21.0121902 C1.29022972,18.1166487 1.46063293,14.7101293 3.33506817,12.1552398 C2.99426176,11.3036099 2.99426176,10.4519801 2.99426176,10.1113281 C-0.243399114,13.1771956 -0.925011913,18.2869747 1.29022972,22.204472 C4.01668097,26.9735991 9.9807931,28.5065329 14.5816796,25.7813173 C17.3081308,24.0780576 19.1825661,21.0121902 19.3529693,17.6056708 Z" id="路径" fill-rule="nonzero"></path>
                        <path d="M7.95812989,18.5845 C7.95812989,19.2665 9.49072266,16.5385 8.8095703,17.05 C6.76611326,15.345 5.40380858,12.7875 5.40380858,10.0595 C5.40380858,5.62650002 8.8095703,2.04600001 13.2370605,2.04600001 C16.4725342,2.04600001 19.1971435,4.09200002 20.3891602,6.82000001 C21.4108887,7.16100002 22.2623291,7.50200003 22.4326172,7.6725 C21.4108887,3.2395 17.6645508,0 13.0667724,0 C7.7878418,0 3.36035156,4.433 3.36035156,10.0595 C3.53063965,13.4695 5.23352052,16.709 7.95812989,18.5845 Z" id="路径" fill-rule="nonzero"></path>
                        <circle id="椭圆形" fill-rule="nonzero" cx="9.35449219" cy="18.6181641" r="2.99707031"></circle>
                        <circle id="椭圆形-copy" fill-rule="nonzero" cx="17.9824219" cy="17.1347656" r="2.99707031"></circle>
                        <circle id="椭圆形-copy-2" fill-rule="nonzero" cx="11.625" cy="9.80859375" r="2.99707031"></circle>
                    </g>
                </g>
            </g>
        </g>
        <g id="icon-gx-zk" transform="translate(56.000000, 0.000000)">
            <circle id="椭圆形" fill="#C7D0D9" cx="8" cy="8" r="7"></circle>
            <g id="展开" stroke-width="1" transform="translate(4.000000, 7.000000)" fill="#000000">
                <path d="M7.90909091,1 C7.90909091,0.698753772 7.66488259,0.454545453 7.36363636,0.454545453 L0.636363641,0.454545453 C0.335117413,0.454545453 0.0909090937,0.698753772 0.0909090937,1 C0.0909090937,1.30124623 0.335117413,1.54545455 0.636363641,1.54545455 L7.36363636,1.54545455 C7.66488259,1.54545455 7.90909091,1.30124623 7.90909091,1 L7.90909091,1 Z" id="路径" fill-rule="nonzero"></path>
            </g>
        </g>
    </g>
</svg>
