<?xml version="1.0" encoding="UTF-8"?>
<svg width="24px" height="24px" viewBox="0 0 24 24" version="1.1" xmlns="http://www.w3.org/2000/svg" xmlns:xlink="http://www.w3.org/1999/xlink">
    <!-- Generator: Sketch 63.1 (92452) - https://sketch.com -->
    <title>fwdt-icon-d1</title>
    <desc>Created with Sketch.</desc>
    <g id="fwdt-icon-d1" stroke="none" stroke-width="1" fill="none" fill-rule="evenodd">
        <g id="点-green-2" fill="#C9F4C7" opacity="0.836588542">
            <circle id="椭圆形-copy-2" cx="12" cy="12" r="12"></circle>
        </g>
        <path d="M10.2973333,18 L10.2973333,13.328 L13.6413333,13.328 C16.2653333,13.328 17.5933333,12.192 17.5933333,9.936 C17.5933333,7.696 16.2813333,6.576 13.6573333,6.576 L8.98533333,6.576 L8.98533333,18 L10.2973333,18 Z M13.5773333,12.192 L10.2973333,12.192 L10.2973333,7.712 L13.5773333,7.712 C14.4893333,7.712 15.1613333,7.888 15.6093333,8.272 C16.0573333,8.608 16.2813333,9.168 16.2813333,9.936 C16.2813333,10.704 16.0573333,11.264 15.6253333,11.632 C15.1773333,12 14.5053333,12.192 13.5773333,12.192 Z" id="P" fill="#04C0A2" fill-rule="nonzero"></path>
    </g>
</svg>
