<?xml version="1.0" encoding="UTF-8"?>
<svg width="24px" height="24px" viewBox="0 0 24 24" version="1.1" xmlns="http://www.w3.org/2000/svg" xmlns:xlink="http://www.w3.org/1999/xlink">
    <!-- Generator: Sketch 63.1 (92452) - https://sketch.com -->
    <title>fwdt-icon-f2</title>
    <desc>Created with Sketch.</desc>
    <g id="fwdt-icon-f2" stroke="none" stroke-width="1" fill="none" fill-rule="evenodd">
        <g id="spot-red">
            <path d="M22.605339,16.0050926 L23.6289915,17.0295801 C23.0127221,18.4555987 22.1219536,19.7914182 20.9566859,20.9566859 C19.5784085,22.3349633 17.9615268,23.3292126 16.2390048,23.9394341 L15.1807915,22.8808948 C18.6031472,21.882115 21.3556467,19.3125307 22.605339,16.0050926 Z M1.25042905,15.6001278 C2.37635062,18.963456 5.03654401,21.6236494 8.39987224,22.749571 L7.36066633,23.7899277 C5.78816,23.1720736 4.31428791,22.2276597 3.0433141,20.9566859 C1.7724693,19.6858411 0.828118069,18.2121392 0.210260416,16.6398125 Z M6.97041986,0.371008538 L7.99490737,1.39466098 C4.68779162,2.64423157 2.11838578,5.39631637 1.11939725,8.818208 L0.0605659204,7.76099516 C0.670787354,6.0384732 1.66503675,4.42159146 3.0433141,3.0433141 C4.20858177,1.87804644 5.54440135,0.987277914 6.97041986,0.371008538 Z M16.6398125,0.210260416 C18.2121392,0.828118069 19.6858411,1.7724693 20.9566859,3.0433141 C22.2276597,4.31428791 23.1720736,5.78816 23.7899277,7.36066633 L22.749904,8.40086733 C21.6241741,5.03706872 18.9637877,2.37646165 15.6001278,1.25042905 L16.6398125,0.210260416 Z" id="合并形状" fill="#FE5562" fill-rule="evenodd"></path>
            <path d="M12,22 C17.5228475,22 22,17.5228475 22,12 C22,6.4771525 17.5228475,2 12,2 C6.4771525,2 2,6.4771525 2,12 C2,17.5228475 6.4771525,22 12,22 Z" id="路径" fill="#FF235F" fill-rule="nonzero"></path>
        </g>
        <path d="M11.656,17.872 C13.016,17.872 14.088,17.584 14.888,17.024 C15.688,16.448 16.088,15.648 16.088,14.656 C16.088,13.616 15.608,12.816 14.664,12.24 C14.184,11.952 13.192,11.584 11.688,11.136 C10.584,10.816 9.88,10.576 9.592,10.416 C8.936,10.064 8.616,9.6 8.616,9.024 C8.616,8.368 8.888,7.888 9.432,7.568 C9.912,7.28 10.568,7.152 11.416,7.152 C12.344,7.152 13.064,7.344 13.576,7.76 C14.072,8.16 14.392,8.768 14.536,9.6 L15.832,9.6 C15.72,8.4 15.288,7.488 14.52,6.88 C13.784,6.288 12.76,6 11.48,6 C10.296,6 9.32,6.256 8.568,6.768 C7.72,7.312 7.304,8.096 7.304,9.088 C7.304,10.048 7.736,10.784 8.616,11.296 C8.984,11.488 9.864,11.808 11.24,12.224 C12.52,12.592 13.336,12.864 13.656,13.056 C14.408,13.456 14.792,14.016 14.792,14.736 C14.792,15.344 14.504,15.824 13.928,16.176 C13.352,16.528 12.584,16.704 11.656,16.704 C10.632,16.704 9.864,16.48 9.336,16.064 C8.76,15.6 8.408,14.864 8.296,13.872 L7,13.872 C7.096,15.28 7.592,16.32 8.488,17.008 C9.256,17.584 10.312,17.872 11.656,17.872 Z" id="S" fill="#FFFFFF" fill-rule="nonzero"></path>
    </g>
</svg>
