<?xml version="1.0" encoding="UTF-8"?>
<svg width="24px" height="24px" viewBox="0 0 24 24" version="1.1" xmlns="http://www.w3.org/2000/svg" xmlns:xlink="http://www.w3.org/1999/xlink">
    <!-- Generator: Sketch 63.1 (92452) - https://sketch.com -->
    <title>fwdt-icon-d2</title>
    <desc>Created with Sketch.</desc>
    <g id="fwdt-icon-d2" stroke="none" stroke-width="1" fill="none" fill-rule="evenodd">
        <g id="spot-red">
            <path d="M22.605339,16.0050926 L23.6289915,17.0295801 C23.0127221,18.4555987 22.1219536,19.7914182 20.9566859,20.9566859 C19.5784085,22.3349633 17.9615268,23.3292126 16.2390048,23.9394341 L15.1807915,22.8808948 C18.6031472,21.882115 21.3556467,19.3125307 22.605339,16.0050926 Z M1.25042905,15.6001278 C2.37635062,18.963456 5.03654401,21.6236494 8.39987224,22.749571 L7.36066633,23.7899277 C5.78816,23.1720736 4.31428791,22.2276597 3.0433141,20.9566859 C1.7724693,19.6858411 0.828118069,18.2121392 0.210260416,16.6398125 Z M6.97041986,0.371008538 L7.99490737,1.39466098 C4.68779162,2.64423157 2.11838578,5.39631637 1.11939725,8.818208 L0.0605659204,7.76099516 C0.670787354,6.0384732 1.66503675,4.42159146 3.0433141,3.0433141 C4.20858177,1.87804644 5.54440135,0.987277914 6.97041986,0.371008538 Z M16.6398125,0.210260416 C18.2121392,0.828118069 19.6858411,1.7724693 20.9566859,3.0433141 C22.2276597,4.31428791 23.1720736,5.78816 23.7899277,7.36066633 L22.749904,8.40086733 C21.6241741,5.03706872 18.9637877,2.37646165 15.6001278,1.25042905 L16.6398125,0.210260416 Z" id="合并形状" fill="#FE5562" fill-rule="evenodd"></path>
            <path d="M12,22 C17.5228475,22 22,17.5228475 22,12 C22,6.4771525 17.5228475,2 12,2 C6.4771525,2 2,6.4771525 2,12 C2,17.5228475 6.4771525,22 12,22 Z" id="路径" fill="#FF235F" fill-rule="nonzero"></path>
        </g>
        <path d="M10.2973333,18 L10.2973333,13.328 L13.6413333,13.328 C16.2653333,13.328 17.5933333,12.192 17.5933333,9.936 C17.5933333,7.696 16.2813333,6.576 13.6573333,6.576 L8.98533333,6.576 L8.98533333,18 L10.2973333,18 Z M13.5773333,12.192 L10.2973333,12.192 L10.2973333,7.712 L13.5773333,7.712 C14.4893333,7.712 15.1613333,7.888 15.6093333,8.272 C16.0573333,8.608 16.2813333,9.168 16.2813333,9.936 C16.2813333,10.704 16.0573333,11.264 15.6253333,11.632 C15.1773333,12 14.5053333,12.192 13.5773333,12.192 Z" id="P" fill="#FFFFFF" fill-rule="nonzero"></path>
    </g>
</svg>
