<?xml version="1.0" encoding="UTF-8"?>
<svg width="44px" height="44px" viewBox="0 0 44 44" version="1.1" xmlns="http://www.w3.org/2000/svg" xmlns:xlink="http://www.w3.org/1999/xlink">
    <!-- Generator: Sketch 63.1 (92452) - https://sketch.com -->
    <title>fwdt-icon-b2</title>
    <desc>Created with Sketch.</desc>
    <g id="fwdt-icon-b2" stroke="none" stroke-width="1" fill="none" fill-rule="evenodd">
        <g id="点-black" fill="#1D3A64">
            <circle id="椭圆形-copy-2" cx="22" cy="22" r="22"></circle>
        </g>
        <g id="icon-gx-zk" transform="translate(28.000000, 0.000000)">
            <circle id="椭圆形" fill="#C7D0D9" cx="8" cy="8" r="7"></circle>
            <g id="展开" stroke-width="1" transform="translate(4.000000, 7.000000)" fill="#000000">
                <path d="M7.90909091,1 C7.90909091,0.698753772 7.66488259,0.454545453 7.36363636,0.454545453 L0.636363641,0.454545453 C0.335117413,0.454545453 0.0909090937,0.698753772 0.0909090937,1 C0.0909090937,1.30124623 0.335117413,1.54545455 0.636363641,1.54545455 L7.36363636,1.54545455 C7.66488259,1.54545455 7.90909091,1.30124623 7.90909091,1 L7.90909091,1 Z" id="路径" fill-rule="nonzero"></path>
            </g>
        </g>
        <g id="spot-icon-1" transform="translate(8.000000, 8.000000)">
            <g id="医院" transform="translate(4.666667, 4.666667)">
                <g id="分组">
                    <rect id="矩形" fill="#000000" opacity="0" x="0" y="0" width="18.6666667" height="18.6666667"></rect>
                    <path d="M4.97194444,11.8047222 L8.925,11.8047222 L8.925,12.7932778 L4.97194444,12.7932778 L4.97194444,11.8047222 Z M7.44333333,5.38027778 L7.44333333,3.89861111 L6.45555556,3.89861111 L6.45555556,5.38027778 L4.97194444,5.38027778 L4.97194444,6.36805556 L6.45555556,6.36805556 L6.45555556,7.85166667 L7.44333333,7.85166667 L7.44333333,6.36805556 L8.925,6.36805556 L8.925,5.38027778 L7.44333333,5.38027778 Z M4.97194444,9.33333333 L8.925,9.33333333 L8.925,10.3213056 L4.97194444,10.3213056 L4.97194444,9.33333333 Z M13.3719444,11.8047222 L14.3597222,11.8047222 L14.3597222,12.7930833 L13.3719444,12.7930833 L13.3719444,11.8047222 Z" id="形状" fill="#FFFFFF" fill-rule="nonzero"></path>
                    <path d="M15.3902778,6.86194444 L11.8902778,6.86194444 L11.8902778,2.9925 C11.8902778,1.97555556 11.4372222,1.42722222 10.4086111,1.42722222 L3.53111111,1.42722222 C2.48888889,1.42722222 2.00666667,2.00277778 2.00666667,2.90888889 L2.00666667,17.2394444 L16.8311111,17.2394444 L16.8311111,8.30277778 C16.8311111,7.32861111 16.3644444,6.86194444 15.3902778,6.86194444 Z M10.9025,6.86194444 L10.9025,16.2516667 L8.925,16.2516667 L8.925,14.2741667 L4.97194444,14.2741667 L4.97194444,16.2516667 L2.99638889,16.2516667 L2.99638889,3.40277778 C2.99638889,2.86805556 3.36583333,2.415 3.98416667,2.415 L9.91472222,2.415 C10.4494444,2.415 10.9025,2.86805556 10.9025,3.40277778 L10.9025,6.86194444 L10.9025,6.86194444 Z M15.8433333,16.2516667 L14.3616667,16.2516667 L14.3616667,14.2741667 L13.3719444,14.2741667 L13.3719444,16.2516667 L11.8902778,16.2516667 L11.8902778,7.85166667 L14.8555556,7.85166667 C15.3494444,7.85166667 15.8433333,8.30472222 15.8433333,8.83944444 L15.8433333,16.2516667 L15.8433333,16.2516667 Z" id="形状" fill="#FFFFFF" fill-rule="nonzero"></path>
                    <polygon id="路径" fill="#FFFFFF" points="13.3719444 9.33333333 14.3597222 9.33333333 14.3597222 10.3213056 13.3719444 10.3213056"></polygon>
                </g>
            </g>
        </g>
    </g>
</svg>
