<?xml version="1.0" encoding="UTF-8"?>
<svg width="44px" height="44px" viewBox="0 0 44 44" version="1.1" xmlns="http://www.w3.org/2000/svg" xmlns:xlink="http://www.w3.org/1999/xlink">
    <!-- Generator: Sketch 63.1 (92452) - https://sketch.com -->
    <title>fwdt-icon-a4</title>
    <desc>Created with Sketch.</desc>
    <g id="fwdt-icon-a4" stroke="none" stroke-width="1" fill="none" fill-rule="evenodd">
        <g id="spot-red">
            <path d="M41.4429274,29.3431837 L43.3201667,31.2200894 C42.1903268,33.8347599 40.5571348,36.2840468 38.4205908,38.4205908 C35.8940725,40.9471091 32.9302248,42.7697565 29.7727217,43.8885328 L27.8318405,41.9481935 C34.1058014,40.1170677 39.1517812,35.406447 41.4429274,29.3431837 Z M2.29229707,28.5997677 C4.35641579,34.7661467 9.2335983,39.6433949 15.3999361,41.7076038 L13.4932372,43.6143497 C10.6108033,42.4816074 7.90917282,40.7503544 5.57940919,38.4205908 C3.24937241,36.090554 1.51798664,33.3885632 0.385251888,30.5057489 Z M12.7799106,0.679833344 L14.6568163,2.55707263 C8.59355302,4.84821885 3.88293229,9.89419863 2.05180653,16.1681595 L0.111467216,14.2272783 C1.23024353,11.0697752 3.05289086,8.10592753 5.57940919,5.57940919 C7.71595321,3.44286517 10.1652401,1.80967322 12.7799106,0.679833344 Z M30.5057489,0.385251888 C33.3885632,1.51798664 36.090554,3.24937241 38.4205908,5.57940919 C40.7503544,7.90917282 42.4816074,10.6108033 43.6143497,13.4932372 L41.7077029,15.4002323 C39.6434731,9.23352128 34.7658765,4.3560799 28.599068,2.29206287 L30.5057489,0.385251888 Z" id="合并形状" fill="#FE5562" fill-rule="evenodd"></path>
            <path d="M22,40.3333333 C32.1252204,40.3333333 40.3333333,32.1252204 40.3333333,22 C40.3333333,11.8747796 32.1252204,3.66666667 22,3.66666667 C11.8747796,3.66666667 3.66666667,11.8747796 3.66666667,22 C3.66666667,32.1252204 11.8747796,40.3333333 22,40.3333333 Z" id="路径" fill="#FF235F" fill-rule="nonzero"></path>
        </g>
        <g id="icon-gx-zk" transform="translate(28.000000, 0.000000)">
            <circle id="椭圆形" fill="#C7D0D9" cx="8" cy="8" r="7"></circle>
            <g id="展开" stroke-width="1" transform="translate(4.000000, 7.000000)" fill="#000000">
                <path d="M7.90909091,1 C7.90909091,0.698753772 7.66488259,0.454545453 7.36363636,0.454545453 L0.636363641,0.454545453 C0.335117413,0.454545453 0.0909090937,0.698753772 0.0909090937,1 C0.0909090937,1.30124623 0.335117413,1.54545455 0.636363641,1.54545455 L7.36363636,1.54545455 C7.66488259,1.54545455 7.90909091,1.30124623 7.90909091,1 L7.90909091,1 Z" id="路径" fill-rule="nonzero"></path>
            </g>
        </g>
        <g id="spot-icon-2" transform="translate(8.000000, 8.000000)">
            <g id="系统管理" transform="translate(4.666667, 4.666667)">
                <g id="分组">
                    <rect id="矩形" fill="#000000" opacity="0" x="0" y="0" width="18.6666667" height="18.6666667"></rect>
                    <path d="M16.8,1.86666667 L1.86666667,1.86666667 C1.17937897,1.86666667 0.622222216,2.42382343 0.622222216,3.11111112 L0.622222216,13.0666667 C0.622222216,13.7539544 1.17937897,14.3111111 1.86666667,14.3111111 L8.71111112,14.3111111 L8.71111112,15.5555555 L6.22222222,15.5555555 C5.87857837,15.5555555 5.59999999,15.8341339 5.59999999,16.1777778 C5.59999999,16.5214216 5.87857837,16.8 6.22222222,16.8 L12.4444445,16.8 C12.7880883,16.8 13.0666667,16.5214216 13.0666667,16.1777778 C13.0666667,15.8341339 12.7880883,15.5555555 12.4444445,15.5555555 L9.95555555,15.5555555 L9.95555555,14.3111111 L16.8,14.3111111 C17.4872877,14.3111111 18.0444445,13.7539544 18.0444445,13.0666667 L18.0444445,3.11111112 C18.0444445,2.42382343 17.4872877,1.86666667 16.8,1.86666667 Z M16.8,3.11111112 L16.8,11.2 L1.86666667,11.2 L1.86666667,3.11111112 L16.8,3.11111112 Z M1.86666667,13.0666667 L1.86666667,12.4444445 L16.8,12.4444445 L16.8,13.0666667 L1.86666667,13.0666667 Z M3.73333333,9.95559379 C3.85566257,9.95695413 3.97535113,9.91995949 4.07555555,9.84977778 L7.46666667,7.57866667 L10.2417778,9.24622222 C10.4479842,9.38026046 10.7137936,9.38026046 10.92,9.24622222 L15.2755555,6.13511112 C15.477926,6.01525618 15.5954199,5.79153525 15.5792242,5.55689357 C15.5630285,5.3222519 15.4159114,5.11679525 15.198993,5.02588096 C14.9820745,4.93496667 14.7324312,4.97413412 14.5537778,5.12711112 L10.5777778,7.97066667 L7.81511112,6.30933333 C7.61334262,6.18322767 7.35732405,6.18322767 7.15555555,6.30933333 L3.42222222,8.79822222 C3.18220267,8.94060832 3.06634562,9.22538755 3.13879394,9.49489529 C3.21124226,9.76440304 3.45427228,9.95270725 3.73333333,9.95559379 Z" id="形状" fill="#FFFFFF" fill-rule="nonzero"></path>
                </g>
            </g>
        </g>
    </g>
</svg>
